<svg width="275" height="203" viewBox="0 0 275 203" fill="none" xmlns="http://www.w3.org/2000/svg">
<path d="M74.6821 40.7969C74.9564 36.1986 71.4511 32.2485 66.8527 31.9742C62.2544 31.7 58.3043 35.2053 58.03 39.8037C57.7558 44.402 61.2611 48.3521 65.8595 48.6263C70.4578 48.9006 74.4079 45.3953 74.6821 40.7969Z" fill="#D4DEFF"/>
<path d="M68.4707 46.4254L67.8291 44.9762C66.9883 45.3302 66.0148 45.4519 65.3511 45.3081L65.2736 44.1908C65.9484 44.3125 66.8113 44.2572 67.6189 43.8921C68.6366 43.4385 69.0681 42.5425 68.7141 41.7239C68.3601 40.9274 67.5857 40.6951 66.3356 40.7282C64.6099 40.7946 63.4152 40.5402 62.862 39.2791C62.331 38.0843 62.7846 36.8011 64.0125 36.0046L63.3709 34.5554L64.267 34.1572L64.8865 35.551C65.7604 35.197 66.4573 35.1749 66.9773 35.2302L67.0326 36.3365C66.6564 36.2922 65.9263 36.2369 65.0081 36.6462C63.9019 37.133 63.7692 37.9848 64.0236 38.56C64.3555 39.3123 65.0524 39.445 66.5348 39.4118C68.2826 39.3676 69.3667 39.7769 69.9309 41.0601C70.4287 42.1996 70.1079 43.6155 68.7362 44.5116L69.3999 46.005L68.4707 46.4254Z" fill="white"/>
<path d="M42.2197 83.7943L35.184 75.8957C35.184 75.8957 37.7726 70.3534 45.3725 70.1543C50.0851 70.0326 54.2446 65.2868 54.2446 65.2868L61.3135 73.2296C61.3135 73.2296 56.7336 79.7343 51.3462 79.7897C45.6491 79.8339 42.2197 83.7943 42.2197 83.7943Z" fill="#D4DEFF"/>
<path d="M52.2755 72.8867C53.0167 74.9222 51.6892 77.2674 49.3108 78.1303C46.9324 78.9932 44.4101 78.0418 43.68 76.0063C42.9388 73.9708 44.2663 71.6256 46.6447 70.7627C49.0121 69.8999 51.5343 70.8512 52.2755 72.8867Z" fill="#E3EAFF"/>
<path d="M262.229 92.788L258.822 82.7655C258.822 82.7655 252.715 82.2787 248.799 88.7945C246.366 92.8323 240.193 94.1045 240.193 94.1045L243.611 104.171C243.611 104.171 251.532 103.397 254.231 98.7396C257.085 93.8279 262.229 92.788 262.229 92.788Z" fill="#D4DEFF"/>
<path d="M247.782 96.151C249.187 97.7993 251.886 97.7993 253.8 96.1621C255.725 94.5248 256.134 91.8588 254.729 90.2105C253.324 88.5622 250.625 88.5622 248.711 90.1994C246.786 91.8477 246.377 94.5138 247.782 96.151Z" fill="#E3EAFF"/>
<path d="M252.063 202.24C263.944 183.279 276.19 168.123 274.907 141.253C273.812 118.221 247.815 111.572 240.912 101.771C232.461 89.779 242.373 67.0458 227.383 46.5803C210.966 24.1678 184.682 24.6545 163.055 35.9825C147.258 44.2461 131.051 47.1002 115.166 42.1995C88.3283 33.9138 51.5679 31.6017 47.9062 64.5014C45.3619 87.3785 32.9166 94.4695 13.1813 109.824C-13.446 130.533 6.82036 171.475 17.0863 200.403L252.063 202.24Z" fill="#E3EAFF"/>
<path d="M258.645 202.24H10.4594C9.71818 202.24 9.1208 201.642 9.1208 200.901V200.868C9.1208 200.127 9.71818 199.529 10.4594 199.529H258.645C259.386 199.529 259.983 200.127 259.983 200.868V200.901C259.972 201.642 259.375 202.24 258.645 202.24Z" fill="#95A6DB"/>
<path d="M165.864 100.056C167.181 104.525 164.625 109.227 160.145 110.543C155.676 111.86 150.974 109.304 149.658 104.835C148.342 100.366 150.897 95.6643 155.377 94.3478C159.846 93.0204 164.548 95.5758 165.864 100.056Z" fill="white"/>
<path d="M159.094 108.862L158.641 107.324C157.756 107.567 156.749 107.567 156.107 107.335L156.174 106.207C156.826 106.417 157.711 106.472 158.563 106.218C159.647 105.897 160.2 105.056 159.935 104.182C159.692 103.342 158.939 102.999 157.678 102.877C155.941 102.722 154.769 102.302 154.382 100.974C154.005 99.7021 154.625 98.4741 155.963 97.8325L155.51 96.2948L156.461 96.0183L156.893 97.5006C157.822 97.2573 158.519 97.3236 159.039 97.4453L158.95 98.5626C158.574 98.4741 157.855 98.3193 156.871 98.6069C155.698 98.9498 155.455 99.7906 155.643 100.399C155.875 101.195 156.561 101.428 158.054 101.583C159.813 101.76 160.842 102.324 161.24 103.685C161.594 104.89 161.085 106.273 159.592 106.992L160.057 108.585L159.094 108.862Z" fill="#E3EAFF"/>
<path d="M146.937 120.013L136.737 127.236L104.689 149.959L101.37 152.315L103.904 155.91L117.92 175.845L154.902 149.583L155.045 149.472L156.306 133.354L146.937 120.013Z" fill="#3F964F"/>
<path d="M154.415 139.084L148.065 130.057C145.875 131.595 142.855 131.064 141.317 128.885L111.603 150.036C113.141 152.226 112.61 155.246 110.431 156.784L116.78 165.811C118.971 164.273 121.991 164.804 123.529 166.984L153.242 145.832C151.694 143.642 152.225 140.622 154.415 139.084Z" fill="#4EAD60"/>
<path d="M140.343 142.691C137.788 139.062 132.777 138.188 129.148 140.733C125.52 143.288 124.646 148.299 127.19 151.928C129.745 155.556 134.757 156.43 138.385 153.886C142.014 151.341 142.888 146.319 140.343 142.691Z" fill="#3F964F"/>
<path d="M156.306 133.354L147.235 142.027L154.902 149.583L155.023 149.704L155.045 149.472L156.306 133.354Z" fill="#3F964F"/>
<path d="M151.694 151.828L147.235 142.027L154.902 149.583L151.694 151.828Z" fill="#193F1E"/>
<path d="M156.306 133.354L147.235 142.027L155.687 132.469L156.306 133.354Z" fill="#193F1E"/>
<path d="M136.737 127.236L104.689 149.959L103.893 155.91L117.909 175.856L142.412 158.444L141.162 153.698C140.686 151.906 137.511 151.109 133.496 151.574L136.737 127.236Z" fill="#193F1E"/>
<path d="M108.326 110.853L99.4524 177.433L127.962 181.232L136.835 114.652L108.326 110.853Z" fill="#3F964F"/>
<path d="M127.423 118.276L116.482 116.816C116.128 119.471 113.694 121.329 111.039 120.975L104.723 168.355C107.378 168.709 109.236 171.143 108.882 173.798L119.823 175.258C120.177 172.603 122.61 170.745 125.265 171.099L131.582 123.719C128.927 123.365 127.069 120.931 127.423 118.276Z" fill="#4EAD60"/>
<path d="M126.552 147.936C127.435 143.583 124.623 139.339 120.27 138.455C115.917 137.572 111.672 140.384 110.789 144.737C109.905 149.09 112.718 153.335 117.071 154.218C121.424 155.102 125.668 152.289 126.552 147.936Z" fill="#3F964F"/>
<path d="M128.374 153.875L100.972 161.11L108.318 188.921L135.719 181.686L130.553 162.116C136.029 160.645 139.967 157.647 139.37 155.379C138.773 153.123 133.861 152.448 128.374 153.875Z" fill="#3F964F"/>
<path d="M108.53 163.517L113.697 183.091L144.491 174.963L139.325 155.389L108.53 163.517Z" fill="#4EAD60"/>
<path d="M128.647 175.721C131.975 173.565 132.924 169.12 130.768 165.792C128.612 162.464 124.166 161.515 120.839 163.671C117.511 165.827 116.562 170.273 118.718 173.6C120.874 176.928 125.32 177.878 128.647 175.721Z" fill="#3F964F"/>
<path d="M128.374 153.875L125.564 154.616L132.909 182.427L145.62 179.075L139.37 155.379C138.773 153.123 133.861 152.448 128.374 153.875Z" fill="#193F1E"/>
<path d="M139.37 155.379C139.967 157.647 136.029 160.645 130.553 162.116L137.899 189.927C143.375 188.467 147.313 185.458 146.715 183.19L139.37 155.379Z" fill="#3F964F"/>
<path d="M140.698 160.402C140.963 161.397 140.288 162.526 139.049 163.388C139.414 164.937 138.562 166.475 137.113 166.862H137.102L140.808 180.922H140.819C142.147 180.568 143.529 181.321 144.083 182.626C145.344 181.752 146.03 180.624 145.764 179.617L140.698 160.402Z" fill="#4EAD60"/>
<path d="M103.793 199.695L60.2626 199.717C53.3929 199.717 47.8285 194.164 47.8285 187.294L47.7621 80.7742C47.7621 73.9044 53.3154 68.34 60.1852 68.34L103.716 68.3179C110.586 68.3179 116.15 73.8713 116.15 80.741L116.216 187.261C116.216 194.12 110.652 199.684 103.793 199.695Z" fill="#2C2858"/>
<path d="M104.236 197.56L59.809 197.593C54.9858 197.593 51.0697 193.688 51.0587 188.854L50.9923 79.9999C50.9923 75.1767 54.8973 71.2606 59.7316 71.2495L104.158 71.2163C108.982 71.2163 112.898 75.1213 112.909 79.9556L112.975 188.81C112.975 193.644 109.07 197.56 104.236 197.56Z" fill="#95A6DB"/>
<path d="M47.3527 103.165C46.2797 103.165 45.4168 102.291 45.4168 101.229V91.1729C45.4168 90.0999 46.2908 89.237 47.3527 89.237C48.4258 89.237 49.2887 90.0999 49.2887 91.1729V101.229C49.2887 102.291 48.4258 103.165 47.3527 103.165Z" fill="#2C2858"/>
<path d="M116.515 103.165C115.442 103.165 114.579 102.291 114.579 101.229V91.1729C114.579 90.0999 115.453 89.237 116.515 89.237C117.588 89.237 118.451 90.0999 118.451 91.1729V101.229C118.462 102.291 117.588 103.165 116.515 103.165Z" fill="#2C2858"/>
<path d="M221.586 199.695L178.055 199.717C171.186 199.717 165.621 194.164 165.621 187.294L165.555 80.7742C165.555 73.9044 171.108 68.34 177.978 68.34L221.509 68.3179C228.378 68.3179 233.943 73.8713 233.943 80.741L234.009 187.261C234.02 194.12 228.456 199.684 221.586 199.695Z" fill="#2C2858"/>
<path d="M222.039 197.56L177.613 197.593C172.79 197.593 168.873 193.688 168.862 188.854L168.796 79.9999C168.796 75.1767 172.701 71.2606 177.535 71.2495L221.962 71.2163C226.785 71.2163 230.701 75.1213 230.712 79.9556L230.779 188.81C230.779 193.644 226.863 197.56 222.039 197.56Z" fill="#95A6DB"/>
<path d="M165.156 103.165C164.083 103.165 163.22 102.291 163.22 101.229V91.1729C163.22 90.0999 164.083 89.237 165.156 89.237C166.229 89.237 167.092 90.0999 167.092 91.1729V101.229C167.092 102.291 166.218 103.165 165.156 103.165Z" fill="#2C2858"/>
<path d="M234.319 103.165C233.246 103.165 232.383 102.291 232.383 101.229V91.1729C232.383 90.0999 233.257 89.237 234.319 89.237C235.392 89.237 236.255 90.0999 236.255 91.1729V101.229C236.255 102.291 235.392 103.165 234.319 103.165Z" fill="#2C2858"/>
<path d="M165.156 118.044C164.083 118.044 163.22 117.181 163.22 116.108V106.052C163.22 104.979 164.083 104.116 165.156 104.116C166.229 104.116 167.092 104.979 167.092 106.052V116.108C167.092 117.17 166.218 118.044 165.156 118.044Z" fill="#2C2858"/>
<path d="M91.6245 55.8395C89.3899 60.9393 83.4384 63.2735 78.3386 61.0388C73.2388 58.8042 70.9046 52.8527 73.1392 47.7529C75.3738 42.6531 81.3254 40.3189 86.4252 42.5535C91.536 44.7882 93.8592 50.7287 91.6245 55.8395Z" fill="#FABA23"/>
<path d="M89.9762 55.1094C87.985 59.7888 82.0334 61.5256 77.8297 58.7047C75.1525 56.9568 73.6923 53.7045 74.2012 50.5185C74.9866 45.1422 80.8718 42.0004 85.7172 44.1908C89.8213 45.9608 91.8347 50.9389 89.9762 55.1094Z" fill="#FAD332"/>
<path d="M81.8122 58.76V57.0453C80.8277 57.0343 79.8099 56.7245 79.2125 56.3042L79.6218 55.1647C80.2303 55.574 81.1153 55.8948 82.0666 55.8838C83.2724 55.8838 84.0911 55.1868 84.08 54.2134C84.08 53.2841 83.4163 52.7089 82.1552 52.2C80.4184 51.5252 79.3453 50.7508 79.3453 49.2685C79.3453 47.8635 80.3409 46.7905 81.9007 46.525V44.8103H82.9516V46.4586C83.9694 46.4918 84.6663 46.7573 85.1641 47.0449L84.7438 48.1622C84.3898 47.9631 83.6928 47.587 82.5976 47.587C81.2923 47.587 80.7945 48.3724 80.8055 49.0472C80.8055 49.9322 81.4361 50.3747 82.9184 50.9831C84.6663 51.6911 85.5513 52.5761 85.5624 54.0806C85.5624 55.4192 84.6331 56.6803 82.8853 56.979V58.749L81.8122 58.76Z" fill="#FABA23"/>
<path d="M109.722 26.5684C107.488 31.6681 101.536 34.0023 96.4365 31.7677C91.3367 29.5331 89.0025 23.5815 91.2371 18.4817C93.4717 13.382 99.4233 11.0478 104.523 13.2824C109.634 15.517 111.957 21.4686 109.722 26.5684Z" fill="#FABA23"/>
<path d="M108.074 25.8493C106.083 30.5287 100.132 32.2655 95.9278 29.4446C93.2507 27.6967 91.7905 24.4444 92.2994 21.2584C93.0848 15.882 98.97 12.7403 103.815 14.9307C107.919 16.7007 109.933 21.6677 108.074 25.8493Z" fill="#FAD332"/>
<path d="M99.9101 29.4888V27.7741C98.9256 27.7631 97.9078 27.4533 97.3104 27.033L97.7197 25.8935C98.3282 26.3028 99.2132 26.6237 100.165 26.6126C101.37 26.6126 102.189 25.9157 102.178 24.9422C102.178 24.0129 101.514 23.4377 100.253 22.9288C98.5162 22.254 97.4432 21.4796 97.4432 19.9973C97.4432 18.5923 98.4388 17.5193 99.9986 17.2538V15.5391H101.05V17.1874C102.067 17.2206 102.764 17.4861 103.262 17.7737L102.842 18.891C102.488 18.6919 101.791 18.3158 100.696 18.3158C99.3902 18.3158 98.8924 19.1012 98.9034 19.776C98.9034 20.661 99.534 21.1035 101.016 21.7119C102.764 22.4199 103.649 23.3049 103.66 24.8094C103.66 26.148 102.731 27.4091 100.983 27.7078V29.4778L99.9101 29.4888Z" fill="#FABA23"/>
<path d="M179.051 32.4829C184.556 31.622 188.321 26.4614 187.46 20.9563C186.599 15.4512 181.438 11.6863 175.933 12.5472C170.428 13.408 166.663 18.5687 167.524 24.0738C168.385 29.5789 173.546 33.3438 179.051 32.4829Z" fill="#FABA23"/>
<path d="M185.08 25.8493C183.089 30.5287 177.137 32.2655 172.933 29.4446C170.256 27.6967 168.796 24.4444 169.305 21.2584C170.09 15.8821 175.975 12.7403 180.821 14.9307C184.936 16.7007 186.949 21.6677 185.08 25.8493Z" fill="#FAD332"/>
<path d="M176.927 29.4888V27.7742C175.942 27.7631 174.924 27.4533 174.327 27.033L174.736 25.8935C175.345 26.3028 176.23 26.6237 177.181 26.6126C178.387 26.6126 179.206 25.9157 179.195 24.9422C179.195 24.0129 178.531 23.4377 177.27 22.9288C175.533 22.254 174.46 21.4796 174.46 19.9973C174.46 18.5923 175.456 17.5193 177.015 17.2538V15.5391H178.066V17.1874C179.084 17.2206 179.781 17.4861 180.279 17.7737L179.858 18.891C179.504 18.6919 178.807 18.3158 177.712 18.3158C176.407 18.3158 175.909 19.1012 175.92 19.776C175.92 20.661 176.551 21.1035 178.033 21.7119C179.781 22.4199 180.666 23.3049 180.677 24.8094C180.677 26.148 179.748 27.4091 178 27.7078V29.4778L176.927 29.4888Z" fill="#FABA23"/>
<path d="M207.293 55.8395C205.059 60.9393 199.107 63.2735 194.007 61.0388C188.908 58.8042 186.573 52.8527 188.808 47.7529C191.043 42.6531 196.994 40.3189 202.094 42.5535C207.205 44.7882 209.528 50.7287 207.293 55.8395Z" fill="#FABA23"/>
<path d="M205.645 55.1094C203.654 59.7888 197.702 61.5256 193.498 58.7047C190.821 56.9568 189.361 53.7045 189.87 50.5185C190.655 45.1422 196.54 42.0004 201.386 44.1908C205.49 45.9608 207.503 50.9389 205.645 55.1094Z" fill="#FAD332"/>
<path d="M197.481 58.76V57.0453C196.496 57.0343 195.479 56.7245 194.881 56.3042L195.291 55.1647C195.899 55.574 196.784 55.8948 197.735 55.8838C198.941 55.8838 199.76 55.1868 199.749 54.2134C199.749 53.2841 199.085 52.7089 197.824 52.2C196.087 51.5252 195.014 50.7508 195.014 49.2685C195.014 47.8635 196.01 46.7905 197.569 46.525V44.8103H198.62V46.4586C199.638 46.4918 200.335 46.7573 200.833 47.0449L200.412 48.1622C200.058 47.9631 199.361 47.587 198.266 47.587C196.961 47.587 196.463 48.3724 196.474 49.0472C196.474 49.9322 197.105 50.3747 198.587 50.9831C200.335 51.6911 201.22 52.5761 201.231 54.0806C201.231 55.4192 200.302 56.6803 198.554 56.979V58.749L197.481 58.76Z" fill="#FABA23"/>
<path d="M151.207 14.1342C148.972 19.234 143.021 21.5681 137.921 19.3335C132.821 17.0989 130.487 11.1473 132.721 6.04755C134.956 0.947769 140.908 -1.3864 146.007 0.848207C151.118 3.08282 153.441 9.0344 151.207 14.1342Z" fill="#FABA23"/>
<path d="M149.559 13.4151C147.567 18.0945 141.616 19.8313 137.412 17.0104C134.735 15.2625 133.275 12.0102 133.784 8.82421C134.569 3.44787 140.454 0.306145 145.3 2.4965C149.415 4.26649 151.417 9.23352 149.559 13.4151Z" fill="#FAD332"/>
<path d="M141.394 17.0546V15.34C140.41 15.3289 139.392 15.0192 138.795 14.5988L139.204 13.4594C139.812 13.8687 140.697 14.1895 141.649 14.1784C142.855 14.1784 143.673 13.4815 143.662 12.508C143.662 11.5787 142.998 11.0035 141.737 10.4946C140 9.81982 138.927 9.04545 138.927 7.56309C138.927 6.15816 139.923 5.0851 141.483 4.8196V3.10493H142.534V4.75323C143.551 4.78642 144.248 5.05192 144.746 5.33954L144.326 6.45684C143.972 6.25772 143.275 5.8816 142.18 5.8816C140.874 5.8816 140.377 6.66703 140.388 7.34184C140.388 8.22683 141.018 8.66933 142.501 9.2667C144.248 9.9747 145.133 10.8597 145.144 12.3642C145.144 13.7027 144.215 14.9639 142.467 15.2625V17.0325L141.394 17.0546Z" fill="#FABA23"/>
<path d="M181.971 67.5657C181.485 67.5657 181.086 67.1674 181.086 66.6807C181.086 65.9616 181.064 65.2315 181.031 64.5125C181.009 64.0257 181.385 63.6054 181.872 63.5832C182.359 63.5611 182.779 63.9372 182.801 64.424C182.834 65.1762 182.856 65.9285 182.856 66.6807C182.856 67.1674 182.458 67.5657 181.971 67.5657Z" fill="#95A6DB"/>
<path d="M181.451 60.8951C181.02 60.8951 180.644 60.5853 180.577 60.1428C180.356 58.7047 180.046 57.2555 179.67 55.8506C179.549 55.3749 179.825 54.8882 180.301 54.7665C180.776 54.6448 181.263 54.9213 181.385 55.397C181.772 56.8683 182.093 58.3728 182.325 59.8662C182.403 60.353 182.071 60.8065 181.584 60.8729C181.551 60.8951 181.507 60.8951 181.451 60.8951ZM96.9896 60.8619C96.9454 60.8619 96.9011 60.8619 96.8458 60.8508C96.3591 60.7734 96.0382 60.3198 96.1046 59.8441C96.3369 58.3396 96.6577 56.8351 97.056 55.3749C97.1777 54.8992 97.6644 54.6227 98.1401 54.7443C98.6158 54.866 98.8924 55.3528 98.7707 55.8285C98.3945 57.2334 98.0848 58.6715 97.8635 60.1207C97.7861 60.5521 97.41 60.8619 96.9896 60.8619ZM179.15 52.2553C178.796 52.2553 178.453 52.034 178.321 51.6911C177.801 50.3304 177.203 48.9808 176.54 47.6865C176.318 47.2551 176.495 46.713 176.927 46.4918C177.358 46.2705 177.9 46.4475 178.122 46.879C178.807 48.2286 179.438 49.6335 179.98 51.0495C180.157 51.5031 179.925 52.023 179.471 52.1889C179.361 52.2442 179.261 52.2553 179.15 52.2553ZM99.2906 52.2221C99.18 52.2221 99.0804 52.2 98.9698 52.1668C98.5162 51.9898 98.2839 51.4809 98.4609 51.0274C99.003 49.6114 99.6335 48.2065 100.319 46.8568C100.541 46.4254 101.072 46.2484 101.514 46.4697C101.946 46.6909 102.123 47.2219 101.901 47.6644C101.238 48.9587 100.64 50.3083 100.12 51.669C99.9875 52.0119 99.6557 52.2221 99.2906 52.2221ZM175.09 44.2904C174.803 44.2904 174.515 44.1465 174.349 43.8921C173.553 42.6752 172.69 41.4805 171.772 40.3411C171.462 39.9649 171.517 39.4008 171.904 39.091C172.281 38.7813 172.845 38.8366 173.154 39.2238C174.106 40.4074 175.013 41.6464 175.843 42.9186C176.108 43.3279 175.998 43.881 175.588 44.1465C175.422 44.2461 175.256 44.2904 175.09 44.2904ZM103.362 44.2682C103.196 44.2682 103.03 44.224 102.875 44.1244C102.466 43.8589 102.344 43.3058 102.62 42.8965C103.45 41.6243 104.357 40.3853 105.309 39.2016C105.618 38.8255 106.171 38.7591 106.559 39.0689C106.935 39.3786 107.001 39.9318 106.691 40.3189C105.773 41.4473 104.91 42.6421 104.114 43.8589C103.937 44.1244 103.649 44.2682 103.362 44.2682ZM169.46 37.3432C169.238 37.3432 169.006 37.2547 168.829 37.0887C167.8 36.0599 166.705 35.0754 165.577 34.1572C165.201 33.8474 165.134 33.2943 165.444 32.9071C165.754 32.531 166.307 32.4646 166.694 32.7744C167.878 33.7257 169.017 34.7545 170.09 35.8387C170.433 36.1816 170.433 36.7458 170.09 37.0887C169.913 37.2547 169.692 37.3432 169.46 37.3432ZM108.992 37.321C108.771 37.321 108.539 37.2325 108.362 37.0666C108.019 36.7237 108.019 36.1595 108.362 35.8165C109.435 34.7435 110.574 33.7147 111.758 32.7633C112.134 32.4536 112.698 32.5089 113.008 32.8961C113.318 33.2722 113.262 33.8364 112.875 34.1461C111.747 35.0643 110.652 36.0488 109.612 37.0777C109.446 37.2436 109.214 37.321 108.992 37.321ZM162.523 31.7124C162.358 31.7124 162.192 31.6681 162.037 31.5686C160.82 30.7721 159.537 30.0309 158.242 29.3671C157.811 29.1459 157.634 28.6149 157.855 28.1724C158.076 27.741 158.607 27.564 159.05 27.7852C160.4 28.4711 161.727 29.2455 162.999 30.0751C163.408 30.3406 163.53 30.8938 163.254 31.3031C163.088 31.5686 162.811 31.7124 162.523 31.7124ZM115.94 31.7013C115.652 31.7013 115.364 31.5575 115.198 31.3031C114.933 30.8938 115.044 30.3406 115.453 30.0751C116.725 29.2455 118.052 28.4821 119.413 27.7852C119.845 27.564 120.387 27.741 120.608 28.1724C120.829 28.6038 120.652 29.1459 120.221 29.3671C118.926 30.0309 117.643 30.7721 116.426 31.5575C116.271 31.646 116.105 31.7013 115.94 31.7013ZM154.559 27.6414C154.448 27.6414 154.348 27.6193 154.238 27.5861C152.877 27.0662 151.472 26.6126 150.067 26.2254C149.592 26.1037 149.315 25.617 149.437 25.1413C149.558 24.6656 150.045 24.389 150.521 24.5107C151.992 24.8979 153.452 25.3736 154.868 25.9267C155.322 26.1037 155.554 26.6126 155.377 27.0662C155.255 27.4312 154.913 27.6414 154.559 27.6414ZM123.905 27.6303C123.551 27.6303 123.219 27.4091 123.075 27.0662C122.898 26.6126 123.13 26.0927 123.584 25.9267C125 25.3847 126.46 24.909 127.931 24.5218C128.407 24.4001 128.894 24.6767 129.015 25.1524C129.137 25.628 128.86 26.1148 128.385 26.2365C126.98 26.6126 125.575 27.0662 124.214 27.5861C124.115 27.6193 124.015 27.6303 123.905 27.6303ZM145.93 25.3294C145.886 25.3294 145.841 25.3294 145.786 25.3183C144.348 25.097 142.888 24.9422 141.427 24.8647C140.941 24.8426 140.565 24.4222 140.587 23.9355C140.609 23.4487 141.029 23.0726 141.516 23.0947C143.031 23.1722 144.558 23.3381 146.063 23.5704C146.549 23.6479 146.87 24.1014 146.804 24.5771C146.726 25.0196 146.35 25.3294 145.93 25.3294ZM132.544 25.3294C132.113 25.3294 131.737 25.0196 131.67 24.5771C131.593 24.0904 131.925 23.6368 132.412 23.5704C133.905 23.3381 135.432 23.1722 136.958 23.0947C137.445 23.0726 137.865 23.4487 137.887 23.9355C137.91 24.4222 137.533 24.8426 137.047 24.8647C135.586 24.9422 134.126 25.086 132.688 25.3183C132.633 25.3294 132.589 25.3294 132.544 25.3294Z" fill="#95A6DB"/>
<path d="M96.4586 67.5657C95.9719 67.5657 95.5736 67.1674 95.5736 66.6807C95.5736 65.9285 95.5957 65.1762 95.6289 64.424C95.651 63.9372 96.0714 63.5611 96.5582 63.5832C97.0449 63.6054 97.421 64.0257 97.3989 64.5125C97.3657 65.2315 97.3436 65.9616 97.3436 66.6807C97.3436 67.1674 96.9454 67.5657 96.4586 67.5657Z" fill="#95A6DB"/>
<path d="M108.439 67.5657C107.953 67.5657 107.554 67.1674 107.554 66.6807C107.554 65.9285 107.576 65.1541 107.632 64.4018C107.665 63.9151 108.085 63.55 108.572 63.5832C109.059 63.6164 109.424 64.0368 109.391 64.5235C109.335 65.2315 109.313 65.9616 109.313 66.6696C109.324 67.1674 108.926 67.5657 108.439 67.5657Z" fill="#95A6DB"/>
<path d="M109.147 61.0057C109.081 61.0057 109.026 60.9946 108.959 60.9836C108.484 60.884 108.174 60.4083 108.284 59.9326C108.605 58.4613 109.037 57.0011 109.557 55.5962C109.723 55.1426 110.243 54.9103 110.696 55.0762C111.15 55.2422 111.382 55.7621 111.216 56.2157C110.718 57.5431 110.32 58.9259 110.01 60.3088C109.922 60.7291 109.546 61.0057 109.147 61.0057ZM169.294 60.9836C168.884 60.9836 168.519 60.6959 168.431 60.2866C168.132 58.9038 167.723 57.521 167.225 56.1935C167.059 55.74 167.28 55.2311 167.745 55.0541C168.199 54.8882 168.707 55.1094 168.884 55.574C169.415 56.979 169.836 58.4392 170.157 59.9105C170.256 60.3862 169.958 60.8619 169.482 60.9614C169.415 60.9836 169.349 60.9836 169.294 60.9836ZM112.201 52.8084C112.057 52.8084 111.913 52.7752 111.78 52.6978C111.349 52.4655 111.194 51.9234 111.426 51.492C112.145 50.1756 112.975 48.9034 113.871 47.6976C114.17 47.3104 114.723 47.233 115.11 47.5206C115.497 47.8193 115.586 48.3724 115.287 48.7596C114.435 49.899 113.661 51.1048 112.975 52.3438C112.82 52.6425 112.521 52.8084 112.201 52.8084ZM166.218 52.7863C165.909 52.7863 165.599 52.6204 165.444 52.3217C164.758 51.0827 163.984 49.8769 163.132 48.7375C162.833 48.3503 162.922 47.7972 163.309 47.4985C163.696 47.1998 164.249 47.2883 164.548 47.6755C165.455 48.8813 166.274 50.1534 166.993 51.4699C167.225 51.9013 167.07 52.4323 166.639 52.6757C166.517 52.7531 166.362 52.7863 166.218 52.7863ZM117.466 45.7948C117.245 45.7948 117.013 45.7064 116.836 45.5404C116.493 45.1975 116.493 44.6333 116.836 44.2904C117.898 43.2284 119.048 42.2327 120.243 41.3367C120.63 41.0491 121.183 41.1265 121.482 41.5137C121.77 41.9009 121.692 42.4651 121.305 42.7527C120.166 43.6045 119.092 44.5448 118.086 45.5404C117.909 45.7174 117.688 45.7948 117.466 45.7948ZM160.964 45.7838C160.743 45.7838 160.51 45.6953 160.333 45.5294C159.327 44.5227 158.242 43.5824 157.114 42.7416C156.727 42.454 156.638 41.8898 156.937 41.5026C157.225 41.1154 157.789 41.0269 158.176 41.3256C159.382 42.2217 160.521 43.2173 161.594 44.2793C161.937 44.6222 161.937 45.1864 161.594 45.5294C161.417 45.7064 161.196 45.7838 160.964 45.7838ZM124.469 40.5513C124.159 40.5513 123.849 40.3853 123.694 40.0866C123.462 39.6552 123.617 39.1242 124.048 38.8808C125.365 38.1618 126.748 37.5312 128.153 37.0002C128.606 36.8343 129.115 37.0666 129.292 37.5202C129.458 37.9737 129.226 38.4826 128.772 38.6596C127.445 39.1574 126.139 39.7548 124.9 40.4296C124.756 40.5181 124.613 40.5513 124.469 40.5513ZM153.95 40.5402C153.806 40.5402 153.663 40.507 153.53 40.4296C152.28 39.7437 150.974 39.1574 149.647 38.6596C149.193 38.4936 148.961 37.9848 149.127 37.5202C149.293 37.0666 149.802 36.8343 150.266 37.0002C151.671 37.5202 153.054 38.1507 154.371 38.8808C154.802 39.1131 154.957 39.6552 154.725 40.0866C154.57 40.3743 154.271 40.5402 153.95 40.5402ZM132.666 37.487C132.257 37.487 131.892 37.1993 131.803 36.79C131.704 36.3144 132.002 35.8387 132.478 35.7391C133.938 35.4183 135.443 35.2081 136.947 35.0975C137.434 35.0643 137.854 35.4294 137.888 35.9161C137.921 36.4029 137.556 36.8232 137.069 36.8564C135.653 36.956 134.237 37.1551 132.854 37.4538C132.788 37.487 132.732 37.487 132.666 37.487ZM145.742 37.487C145.676 37.487 145.62 37.4759 145.554 37.4648C144.171 37.1662 142.755 36.967 141.339 36.8675C140.852 36.8343 140.487 36.4139 140.52 35.9272C140.554 35.4404 140.974 35.0754 141.461 35.1085C142.965 35.2192 144.47 35.4294 145.93 35.7391C146.406 35.8387 146.715 36.3144 146.605 36.79C146.516 37.1993 146.151 37.487 145.742 37.487Z" fill="#95A6DB"/>
<path d="M169.991 67.5657C169.504 67.5657 169.106 67.1674 169.106 66.6807C169.106 65.9616 169.083 65.2426 169.028 64.5346C168.995 64.0478 169.36 63.6274 169.847 63.5943C170.334 63.5611 170.754 63.9261 170.787 64.4129C170.842 65.1651 170.865 65.9284 170.865 66.6917C170.876 67.1674 170.488 67.5657 169.991 67.5657Z" fill="#95A6DB"/>
<path d="M181.816 68.0856C181.639 68.0856 181.474 67.9971 181.374 67.8644L175.721 60.2645C175.544 60.0211 175.588 59.6782 175.832 59.4901C176.075 59.3131 176.418 59.3574 176.606 59.6008L181.828 66.6254L187.027 60.1649C187.215 59.9326 187.569 59.8884 187.801 60.0764C188.034 60.2645 188.078 60.6185 187.89 60.8508L182.237 67.8644C182.148 68.0082 181.982 68.0856 181.816 68.0856Z" fill="#95A6DB"/>
<path d="M108.428 68.0856C108.417 68.0856 108.417 68.0856 108.428 68.0856C108.251 68.0856 108.085 67.9971 107.986 67.8644L102.333 60.2645C102.156 60.0211 102.2 59.6782 102.443 59.4901C102.687 59.3131 103.03 59.3574 103.218 59.6008L108.439 66.6254L113.639 60.1649C113.827 59.9326 114.181 59.8884 114.413 60.0764C114.645 60.2645 114.69 60.6185 114.501 60.8508L108.849 67.8644C108.749 68.0082 108.594 68.0856 108.428 68.0856Z" fill="#95A6DB"/>
<path d="M220.734 187.272V189.518C220.734 190.392 220.026 191.1 219.152 191.1H191.795C190.921 191.1 190.213 190.392 190.213 189.518V187.272C190.213 186.885 190.357 186.52 190.589 186.243C190.877 185.9 191.319 185.679 191.795 185.679H219.152C219.639 185.679 220.07 185.9 220.358 186.243C220.59 186.531 220.734 186.885 220.734 187.272Z" fill="#FAD332"/>
<path d="M192.514 185.69H191.717V191.1H192.514V185.69Z" fill="#FABA23"/>
<path d="M195.855 185.69H195.058V191.1H195.855V185.69Z" fill="#FABA23"/>
<path d="M199.184 185.69H198.388V191.1H199.184V185.69Z" fill="#FABA23"/>
<path d="M202.514 185.69H201.718V191.1H202.514V185.69Z" fill="#FABA23"/>
<path d="M205.844 185.69H205.048V191.1H205.844V185.69Z" fill="#FABA23"/>
<path d="M209.174 185.69H208.377V191.1H209.174V185.69Z" fill="#FABA23"/>
<path d="M212.515 185.69H211.718V191.1H212.515V185.69Z" fill="#FABA23"/>
<path d="M215.845 185.69H215.048V191.1H215.845V185.69Z" fill="#FABA23"/>
<path d="M219.174 185.69H218.378V191.1H219.174V185.69Z" fill="#FABA23"/>
<path d="M220.358 186.254H190.578C190.866 185.912 191.308 185.69 191.784 185.69H219.141C219.628 185.69 220.07 185.9 220.358 186.254Z" fill="#FABA23"/>
<path d="M220.358 190.536H190.578C190.866 190.879 191.308 191.1 191.784 191.1H219.141C219.628 191.1 220.07 190.879 220.358 190.536Z" fill="#FABA23"/>
<path d="M222.648 181.863V184.108C222.648 184.982 221.94 185.69 221.066 185.69H193.709C192.835 185.69 192.127 184.982 192.127 184.108V181.863C192.127 181.475 192.27 181.11 192.503 180.834C192.79 180.491 193.233 180.27 193.709 180.27H221.066C221.553 180.27 221.984 180.491 222.272 180.834C222.504 181.11 222.648 181.475 222.648 181.863Z" fill="#FAD332"/>
<path d="M194.428 180.27H193.631V185.679H194.428V180.27Z" fill="#FABA23"/>
<path d="M197.768 180.27H196.972V185.679H197.768V180.27Z" fill="#FABA23"/>
<path d="M201.098 180.27H200.302V185.679H201.098V180.27Z" fill="#FABA23"/>
<path d="M204.428 180.27H203.632V185.679H204.428V180.27Z" fill="#FABA23"/>
<path d="M207.758 180.27H206.961V185.679H207.758V180.27Z" fill="#FABA23"/>
<path d="M211.088 180.27H210.291V185.679H211.088V180.27Z" fill="#FABA23"/>
<path d="M214.428 180.27H213.632V185.679H214.428V180.27Z" fill="#FABA23"/>
<path d="M217.758 180.27H216.962V185.679H217.758V180.27Z" fill="#FABA23"/>
<path d="M221.088 180.27H220.292V185.679H221.088V180.27Z" fill="#FABA23"/>
<path d="M222.272 180.834L192.492 180.834C192.779 180.491 193.222 180.27 193.697 180.27H221.055C221.542 180.27 221.984 180.491 222.272 180.834Z" fill="#FABA23"/>
<path d="M222.272 185.126H192.492C192.779 185.469 193.222 185.69 193.697 185.69H221.055C221.542 185.69 221.984 185.469 222.272 185.126Z" fill="#FABA23"/>
<path d="M221.165 176.453V178.699C221.165 179.573 220.457 180.281 219.584 180.281H192.226C191.352 180.281 190.644 179.573 190.644 178.699V176.453C190.644 176.066 190.788 175.701 191.02 175.424C191.308 175.081 191.75 174.86 192.226 174.86H219.584C220.07 174.86 220.502 175.081 220.789 175.424C221.022 175.712 221.165 176.066 221.165 176.453Z" fill="#FAD332"/>
<path d="M192.945 174.871H192.149V180.281H192.945V174.871Z" fill="#FABA23"/>
<path d="M196.286 174.871H195.49V180.281H196.286V174.871Z" fill="#FABA23"/>
<path d="M199.616 174.871H198.819V180.281H199.616V174.871Z" fill="#FABA23"/>
<path d="M202.946 174.871H202.149V180.281H202.946V174.871Z" fill="#FABA23"/>
<path d="M206.275 174.871H205.479V180.281H206.275V174.871Z" fill="#FABA23"/>
<path d="M209.605 174.871H208.809V180.281H209.605V174.871Z" fill="#FABA23"/>
<path d="M212.935 174.871H212.139V180.281H212.935V174.871Z" fill="#FABA23"/>
<path d="M216.276 174.871H215.479V180.281H216.276V174.871Z" fill="#FABA23"/>
<path d="M219.606 174.871H218.809V180.281H219.606V174.871Z" fill="#FABA23"/>
<path d="M220.79 175.435H191.009C191.297 175.092 191.74 174.871 192.215 174.871H219.573C220.059 174.871 220.491 175.092 220.79 175.435Z" fill="#FABA23"/>
<path d="M220.79 179.728H191.009C191.297 180.071 191.74 180.292 192.215 180.292H219.573C220.059 180.281 220.491 180.071 220.79 179.728Z" fill="#FABA23"/>
<path d="M221.774 171.154V173.4C221.774 174.274 221.066 174.982 220.192 174.982H192.835C191.961 174.982 191.253 174.274 191.253 173.4V171.154C191.253 170.767 191.397 170.402 191.629 170.125C191.917 169.783 192.359 169.561 192.835 169.561H220.192C220.679 169.561 221.11 169.783 221.398 170.125C221.63 170.402 221.774 170.767 221.774 171.154Z" fill="#FAD332"/>
<path d="M193.565 169.572H192.768V174.982H193.565V169.572Z" fill="#FABA23"/>
<path d="M196.895 169.572H196.098V174.982H196.895V169.572Z" fill="#FABA23"/>
<path d="M200.224 169.572H199.428V174.982H200.224V169.572Z" fill="#FABA23"/>
<path d="M203.554 169.572H202.758V174.982H203.554V169.572Z" fill="#FABA23"/>
<path d="M206.884 169.572H206.088V174.982H206.884V169.572Z" fill="#FABA23"/>
<path d="M210.214 169.572H209.417V174.982H210.214V169.572Z" fill="#FABA23"/>
<path d="M213.555 169.572H212.758V174.982H213.555V169.572Z" fill="#FABA23"/>
<path d="M216.884 169.572H216.088V174.982H216.884V169.572Z" fill="#FABA23"/>
<path d="M220.214 169.572H219.418V174.982H220.214V169.572Z" fill="#FABA23"/>
<path d="M221.398 170.125L191.618 170.125C191.905 169.782 192.348 169.561 192.824 169.561H220.181C220.668 169.572 221.11 169.783 221.398 170.125Z" fill="#FABA23"/>
<path d="M221.398 174.418H191.618C191.905 174.761 192.348 174.982 192.824 174.982H220.181C220.668 174.982 221.11 174.761 221.398 174.418Z" fill="#FABA23"/>
<path d="M218.367 165.656V167.902C218.367 168.776 217.659 169.484 216.785 169.484H189.428C188.554 169.484 187.846 168.776 187.846 167.902V165.656C187.846 165.269 187.989 164.904 188.222 164.627C188.509 164.284 188.952 164.063 189.428 164.063H216.785C217.272 164.063 217.703 164.284 217.991 164.627C218.223 164.915 218.367 165.269 218.367 165.656Z" fill="#FAD332"/>
<path d="M190.147 164.074H189.35V169.484H190.147V164.074Z" fill="#FABA23"/>
<path d="M193.476 164.074H192.68V169.484H193.476V164.074Z" fill="#FABA23"/>
<path d="M196.817 164.074H196.021V169.484H196.817V164.074Z" fill="#FABA23"/>
<path d="M200.147 164.074H199.35V169.484H200.147V164.074Z" fill="#FABA23"/>
<path d="M203.477 164.074H202.68V169.484H203.477V164.074Z" fill="#FABA23"/>
<path d="M206.807 164.074H206.01V169.484H206.807V164.074Z" fill="#FABA23"/>
<path d="M210.136 164.074H209.34V169.484H210.136V164.074Z" fill="#FABA23"/>
<path d="M213.477 164.074H212.681V169.484H213.477V164.074Z" fill="#FABA23"/>
<path d="M216.807 164.074H216.011V169.484H216.807V164.074Z" fill="#FABA23"/>
<path d="M217.991 164.638H188.211C188.498 164.296 188.941 164.074 189.416 164.074H216.774C217.261 164.074 217.692 164.296 217.991 164.638Z" fill="#FABA23"/>
<path d="M217.991 168.92H188.211C188.498 169.263 188.941 169.484 189.416 169.484H216.774C217.261 169.484 217.692 169.263 217.991 168.92Z" fill="#FABA23"/>
<path d="M221.719 160.313V162.559C221.719 163.433 221.011 164.141 220.137 164.141H192.779C191.905 164.141 191.197 163.433 191.197 162.559V160.313C191.197 159.926 191.341 159.561 191.574 159.284C191.861 158.941 192.304 158.72 192.779 158.72H220.137C220.623 158.72 221.055 158.941 221.343 159.284C221.575 159.561 221.719 159.915 221.719 160.313Z" fill="#FAD332"/>
<path d="M193.509 158.72H192.713V164.13H193.509V158.72Z" fill="#FABA23"/>
<path d="M196.839 158.72H196.043V164.13H196.839V158.72Z" fill="#FABA23"/>
<path d="M200.169 158.72H199.373V164.13H200.169V158.72Z" fill="#FABA23"/>
<path d="M203.499 158.72H202.702V164.13H203.499V158.72Z" fill="#FABA23"/>
<path d="M206.829 158.72H206.032V164.13H206.829V158.72Z" fill="#FABA23"/>
<path d="M210.169 158.72H209.373V164.13H210.169V158.72Z" fill="#FABA23"/>
<path d="M213.499 158.72H212.703V164.13H213.499V158.72Z" fill="#FABA23"/>
<path d="M216.829 158.72H216.033V164.13H216.829V158.72Z" fill="#FABA23"/>
<path d="M220.159 158.72H219.362V164.13H220.159V158.72Z" fill="#FABA23"/>
<path d="M221.343 159.284H191.562C191.85 158.941 192.293 158.72 192.768 158.72H220.126C220.612 158.72 221.055 158.941 221.343 159.284Z" fill="#FABA23"/>
<path d="M221.342 163.577H191.562C191.85 163.919 192.293 164.141 192.768 164.141H220.126C220.612 164.141 221.055 163.919 221.342 163.577Z" fill="#FABA23"/>
<path d="M220.524 154.881V157.127C220.524 158.001 219.816 158.709 218.942 158.709H191.585C190.711 158.709 190.003 158.001 190.003 157.127V154.881C190.003 154.494 190.146 154.129 190.379 153.853C190.666 153.51 191.109 153.288 191.585 153.288H218.942C219.429 153.288 219.86 153.51 220.148 153.853C220.391 154.129 220.524 154.494 220.524 154.881Z" fill="#FAD332"/>
<path d="M192.315 153.3H191.518V158.709H192.315V153.3Z" fill="#FABA23"/>
<path d="M195.644 153.3H194.848V158.709H195.644V153.3Z" fill="#FABA23"/>
<path d="M198.974 153.3H198.178V158.709H198.974V153.3Z" fill="#FABA23"/>
<path d="M202.315 153.3H201.519V158.709H202.315V153.3Z" fill="#FABA23"/>
<path d="M205.645 153.3H204.848V158.709H205.645V153.3Z" fill="#FABA23"/>
<path d="M208.975 153.3H208.178V158.709H208.975V153.3Z" fill="#FABA23"/>
<path d="M212.305 153.3H211.508V158.709H212.305V153.3Z" fill="#FABA23"/>
<path d="M215.634 153.3H214.838V158.709H215.634V153.3Z" fill="#FABA23"/>
<path d="M218.975 153.3H218.179V158.709H218.975V153.3Z" fill="#FABA23"/>
<path d="M220.159 153.853H190.379C190.666 153.51 191.109 153.288 191.585 153.288H218.942C219.429 153.299 219.86 153.51 220.159 153.853Z" fill="#FABA23"/>
<path d="M220.159 158.145H190.379C190.667 158.488 191.109 158.709 191.585 158.709H218.942C219.429 158.709 219.86 158.488 220.159 158.145Z" fill="#FABA23"/>
<path d="M222.161 149.494V151.74C222.161 152.614 221.453 153.322 220.579 153.322H193.222C192.348 153.322 191.64 152.614 191.64 151.74V149.494C191.64 149.107 191.784 148.742 192.016 148.465C192.304 148.122 192.746 147.901 193.222 147.901H220.579C221.066 147.901 221.498 148.122 221.785 148.465C222.017 148.753 222.161 149.107 222.161 149.494Z" fill="#FAD332"/>
<path d="M193.952 147.912H193.155V153.322H193.952V147.912Z" fill="#FABA23"/>
<path d="M197.282 147.912H196.485V153.322H197.282V147.912Z" fill="#FABA23"/>
<path d="M200.612 147.912H199.815V153.322H200.612V147.912Z" fill="#FABA23"/>
<path d="M203.941 147.912H203.145V153.322H203.941V147.912Z" fill="#FABA23"/>
<path d="M207.282 147.912H206.486V153.322H207.282V147.912Z" fill="#FABA23"/>
<path d="M210.612 147.912H209.816V153.322H210.612V147.912Z" fill="#FABA23"/>
<path d="M213.942 147.912H213.145V153.322H213.942V147.912Z" fill="#FABA23"/>
<path d="M217.272 147.912H216.475V153.322H217.272V147.912Z" fill="#FABA23"/>
<path d="M220.601 147.912H219.805V153.322H220.601V147.912Z" fill="#FABA23"/>
<path d="M221.785 148.476H192.016C192.304 148.133 192.746 147.912 193.222 147.912H220.579C221.066 147.912 221.497 148.133 221.785 148.476Z" fill="#FABA23"/>
<path d="M221.785 152.757H192.016C192.304 153.1 192.746 153.322 193.222 153.322H220.579C221.066 153.322 221.497 153.111 221.785 152.757Z" fill="#FABA23"/>
<path d="M195.919 190.53C204.483 187.705 209.136 178.473 206.312 169.909C203.487 161.345 194.255 156.692 185.691 159.516C177.127 162.34 172.474 171.573 175.298 180.137C178.122 188.701 187.355 193.354 195.919 190.53Z" fill="#FABA23"/>
<path d="M203.565 179.152C201.286 186.199 193.731 190.071 186.684 187.792C185.954 187.56 185.246 187.261 184.582 186.918C183.465 186.332 182.447 185.602 181.562 184.761C181.23 184.44 180.909 184.108 180.611 183.754C178.409 181.177 177.237 177.814 177.414 174.34C177.469 173.201 177.679 172.061 178.044 170.922C179.737 165.667 184.372 162.183 189.549 161.685C191.308 161.519 193.133 161.696 194.925 162.282C196.474 162.78 197.879 163.543 199.085 164.495C199.45 164.782 199.804 165.081 200.136 165.413C201.032 166.287 201.806 167.271 202.426 168.344C204.24 171.486 204.771 175.391 203.565 179.152Z" fill="#FAD332"/>
<path d="M199.085 164.473L180.611 183.732C178.409 181.155 177.237 177.792 177.414 174.318L189.549 161.674C191.308 161.508 193.133 161.685 194.925 162.271C196.474 162.769 197.868 163.521 199.085 164.473Z" fill="#FAEE6C"/>
<path d="M202.415 168.322L184.582 186.907C183.465 186.321 182.447 185.591 181.562 184.75L200.136 165.391C201.032 166.254 201.795 167.249 202.415 168.322Z" fill="#FAEE6C"/>
<path d="M191.706 162.282C190.124 162.116 189.837 162.271 189.118 163.676C189.295 162.116 189.14 161.818 187.724 161.087C189.306 161.253 189.593 161.099 190.312 159.694C190.135 161.276 190.301 161.574 191.706 162.282Z" fill="white"/>
<path d="M186.098 187.471C184.759 187.328 184.516 187.46 183.918 188.644C184.062 187.328 183.941 187.084 182.746 186.465C184.084 186.608 184.328 186.476 184.925 185.292C184.781 186.62 184.914 186.863 186.098 187.471Z" fill="white"/>
<path d="M201.386 120.831C191.507 120.831 183.465 112.789 183.465 102.91C183.465 93.0314 191.507 84.989 201.386 84.989C211.265 84.989 219.307 93.0314 219.307 102.91C219.296 112.789 211.265 120.831 201.386 120.831ZM201.386 85.885C191.994 85.885 184.35 93.5292 184.35 102.921C184.35 112.313 191.994 119.957 201.386 119.957C210.778 119.957 218.422 112.313 218.422 102.921C218.411 93.5181 210.778 85.885 201.386 85.885Z" fill="#E3EAFF"/>
<path d="M201.386 113.088C200.07 113.088 199.008 112.026 199.008 110.709V77.8316C199.008 76.5152 200.07 75.4532 201.386 75.4532C202.702 75.4532 203.764 76.5152 203.764 77.8316V110.709C203.764 112.014 202.691 113.088 201.386 113.088Z" fill="#E3EAFF"/>
<path d="M201.386 120.831C191.507 120.831 183.465 112.789 183.465 102.91C183.465 93.0314 191.507 84.989 201.386 84.989C211.265 84.989 219.307 93.0314 219.307 102.91C219.296 112.789 211.265 120.831 201.386 120.831ZM201.386 85.885C191.994 85.885 184.35 93.5292 184.35 102.921C184.35 112.313 191.994 119.957 201.386 119.957C210.778 119.957 218.422 112.313 218.422 102.921C218.411 93.5181 210.778 85.885 201.386 85.885Z" fill="#E3EAFF"/>
<path d="M201.386 113.088C200.07 113.088 199.008 112.026 199.008 110.709V77.8316C199.008 76.5152 200.07 75.4532 201.386 75.4532C202.702 75.4532 203.764 76.5152 203.764 77.8316V110.709C203.764 112.014 202.691 113.088 201.386 113.088Z" fill="#E3EAFF"/>
<path d="M201.552 115.035C201.519 115.035 201.486 115.035 201.464 115.035C200.733 115.001 200.059 114.647 199.638 114.061L189.748 101.406C188.974 100.344 189.206 98.8613 190.268 98.0869C191.33 97.3125 192.813 97.5448 193.587 98.6068L201.696 108.829L209.285 98.463C210.136 97.4674 211.641 97.3457 212.637 98.1975C213.632 99.0493 213.754 100.554 212.902 101.549L203.355 114.205C202.902 114.736 202.238 115.035 201.552 115.035Z" fill="#E3EAFF"/>
<path d="M82.6529 119.006C72.7741 119.006 64.7318 110.964 64.7318 101.085C64.7318 91.2061 72.7741 83.1637 82.6529 83.1637C92.5316 83.1637 100.574 91.2061 100.574 101.085C100.563 110.975 92.5316 119.006 82.6529 119.006ZM82.6529 84.0598C73.2609 84.0598 65.6168 91.7039 65.6168 101.096C65.6168 110.488 73.2609 118.132 82.6529 118.132C92.0449 118.132 99.689 110.488 99.689 101.096C99.678 91.7039 92.0449 84.0598 82.6529 84.0598Z" fill="#E3EAFF"/>
<path d="M91.8201 110.259C96.8833 105.196 96.8833 96.9868 91.8201 91.9237C86.7569 86.8605 78.5479 86.8605 73.4848 91.9237C68.4216 96.9868 68.4216 105.196 73.4848 110.259C78.5479 115.322 86.757 115.322 91.8201 110.259Z" fill="#E3EAFF"/>
<path d="M92.4651 106.539C90.5623 110.001 86.8785 112.346 82.6416 112.346C78.4047 112.346 74.7209 110.001 72.8182 106.539C74.024 104.393 75.9046 102.689 78.1835 101.704C77.21 100.631 76.6237 99.2153 76.6237 97.6555C76.6237 94.3257 79.3229 91.6375 82.6416 91.6375C85.9714 91.6375 88.6596 94.3368 88.6596 97.6555C88.6596 99.2153 88.0622 100.631 87.0998 101.704C89.3787 102.689 91.2593 104.393 92.4651 106.539Z" fill="#95A6DB"/>
<path d="M220.07 131.816L212.548 127.778C212.338 128.177 212.128 128.564 211.906 128.962C211.597 129.537 213.046 130.909 215.125 132.026C217.216 133.144 219.152 133.597 219.462 133.022C219.506 132.967 220.07 131.816 220.07 131.816Z" fill="#FABA23"/>
<path d="M220.081 131.905C219.772 132.48 217.836 132.026 215.745 130.909C213.654 129.792 212.216 128.409 212.526 127.845C212.836 127.27 214.771 127.723 216.862 128.84C218.942 129.958 220.391 131.33 220.081 131.905Z" fill="#FAD332"/>
<path d="M186.673 147.005L179.062 148.244C179.128 148.642 179.195 149.04 179.261 149.439C179.35 150.014 181.142 150.213 183.255 149.859C185.368 149.516 187.005 148.764 186.905 148.189C186.894 148.144 186.673 147.005 186.673 147.005Z" fill="#FABA23"/>
<path d="M186.717 147.06C186.806 147.636 185.179 148.388 183.066 148.731C180.954 149.074 179.161 148.886 179.073 148.31C178.984 147.735 180.611 146.983 182.724 146.64C184.836 146.297 186.629 146.485 186.717 147.06Z" fill="#FAD332"/>
<path d="M195.755 133.664L188.841 130.256C188.664 130.622 188.487 130.987 188.31 131.341C188.056 131.872 189.394 133.055 191.319 134.007C193.244 134.947 195.003 135.29 195.268 134.77C195.29 134.715 195.755 133.664 195.755 133.664Z" fill="#FABA23"/>
<path d="M195.766 133.741C195.512 134.272 193.742 133.929 191.817 132.978C189.892 132.038 188.553 130.843 188.808 130.312C189.062 129.781 190.832 130.124 192.757 131.075C194.682 132.015 196.032 133.21 195.766 133.741Z" fill="#FAD332"/>
<path d="M185.456 120.809L177.491 122.103C177.557 122.524 177.624 122.933 177.69 123.354C177.79 123.962 179.659 124.161 181.872 123.796C184.084 123.442 185.799 122.657 185.699 122.048C185.688 122.004 185.456 120.809 185.456 120.809Z" fill="#FABA23"/>
<path d="M185.511 120.876C185.611 121.484 183.896 122.258 181.684 122.623C179.471 122.977 177.602 122.778 177.502 122.181C177.402 121.572 179.117 120.798 181.33 120.433C183.531 120.068 185.412 120.267 185.511 120.876Z" fill="#FAD332"/>
<path d="M106.371 147.558H58.0833C55.9372 147.558 54.2004 145.821 54.2004 143.675V133.465C54.2004 131.318 55.9372 129.582 58.0833 129.582H106.382C108.528 129.582 110.265 131.318 110.265 133.465V143.675C110.265 145.821 108.517 147.558 106.371 147.558Z" fill="#E3EAFF"/>
<path d="M71.6124 136.042V141.098C71.6124 142.458 70.5062 143.565 69.1455 143.565H59.5765C59.0787 143.565 58.603 143.41 58.2159 143.155C57.5521 142.713 57.1096 141.961 57.1096 141.098V136.042C57.1096 134.681 58.2159 133.575 59.5765 133.575H69.1455C69.6987 133.575 70.2186 133.763 70.6279 134.073C71.2253 134.515 71.6124 135.235 71.6124 136.042Z" fill="#FABA23"/>
<path d="M91.1157 140.622H75.2411C74.1017 140.622 73.1835 139.704 73.1835 138.564C73.1835 137.425 74.1017 136.507 75.2411 136.507H91.1157C92.2551 136.507 93.1733 137.425 93.1733 138.564C93.1733 139.704 92.2551 140.622 91.1157 140.622Z" fill="#95A6DB"/>
<path d="M105.298 140.622H97.3437C96.2042 140.622 95.2861 139.704 95.2861 138.564C95.2861 137.425 96.2042 136.507 97.3437 136.507H105.298C106.437 136.507 107.355 137.425 107.355 138.564C107.355 139.704 106.426 140.622 105.298 140.622Z" fill="#4EAD60"/>
<path d="M70.6279 134.062L58.2159 143.155C57.5521 142.713 57.1096 141.961 57.1096 141.098V136.042C57.1096 134.681 58.2159 133.575 59.5765 133.575H69.1455C69.6987 133.575 70.2186 133.752 70.6279 134.062Z" fill="#FAD332"/>
<path d="M68.4044 140.722C68.4044 141.64 67.6632 142.381 66.7451 142.381C65.8269 142.381 65.0857 141.64 65.0857 140.722C65.0857 139.803 65.8269 139.062 66.7451 139.062C67.6632 139.062 68.4044 139.803 68.4044 140.722Z" fill="#E62552"/>
<path d="M70.3735 140.722C70.3735 141.64 69.6323 142.381 68.7141 142.381C67.7959 142.381 67.0547 141.64 67.0547 140.722C67.0547 139.803 67.7959 139.062 68.7141 139.062C69.6323 139.062 70.3735 139.803 70.3735 140.722Z" fill="#95A6DB"/>
<path d="M29.9072 155.578C31.9095 159.251 30.5709 163.853 26.8982 165.855C23.2255 167.858 18.6235 166.519 16.6212 162.846C14.6189 159.174 15.9575 154.572 19.6302 152.569C23.3029 150.556 27.9049 151.906 29.9072 155.578Z" fill="white"/>
<path d="M25.6482 164.583L24.9513 163.322C24.2211 163.709 23.3472 163.897 22.7277 163.82L22.5728 162.813C23.1923 162.868 23.9667 162.747 24.6747 162.371C25.5597 161.884 25.8805 161.043 25.4933 160.324C25.1172 159.638 24.3981 159.472 23.2587 159.605C21.71 159.804 20.6037 159.66 20.0064 158.565C19.4422 157.525 19.7409 156.331 20.7918 155.512L20.0949 154.251L20.8692 153.83L21.533 155.047C22.2963 154.66 22.9268 154.583 23.4025 154.594L23.5463 155.589C23.2034 155.578 22.5397 155.589 21.7321 156.032C20.7697 156.563 20.7144 157.337 20.9909 157.835C21.3449 158.488 21.9865 158.554 23.3251 158.41C24.907 158.233 25.9137 158.521 26.5221 159.638C27.0642 160.623 26.8761 161.928 25.7035 162.846L26.4115 164.152L25.6482 164.583Z" fill="#E3EAFF"/>
<path d="M268.236 132.513C266.444 136.286 261.92 137.89 258.147 136.097C254.375 134.305 252.771 129.781 254.563 126.009C256.355 122.236 260.88 120.632 264.652 122.424C268.435 124.216 270.039 128.741 268.236 132.513Z" fill="white"/>
<path d="M258.446 134.339L259.065 133.033C258.324 132.668 257.66 132.06 257.362 131.529L258.081 130.81C258.402 131.341 258.955 131.905 259.674 132.248C260.592 132.679 261.455 132.447 261.809 131.717C262.152 131.009 261.853 130.334 261.079 129.493C260.006 128.354 259.475 127.369 260.017 126.252C260.526 125.179 261.676 124.736 262.948 125.101L263.568 123.796L264.364 124.172L263.767 125.422C264.53 125.82 264.962 126.274 265.227 126.672L264.497 127.369C264.298 127.082 263.911 126.551 263.081 126.152C262.085 125.677 261.433 126.097 261.189 126.606C260.869 127.281 261.189 127.834 262.085 128.84C263.158 130.013 263.512 131.009 262.959 132.148C262.472 133.166 261.311 133.785 259.884 133.376L259.242 134.715L258.446 134.339Z" fill="#E3EAFF"/>
<path d="M244.242 55.5851C245.923 59.4127 244.187 63.8819 240.37 65.5634C236.542 67.2449 232.073 65.5081 230.392 61.6916C228.71 57.864 230.447 53.3947 234.264 51.7132C238.08 50.0207 242.549 51.7575 244.242 55.5851Z" fill="#D4DEFF"/>
<path d="M239.23 64.1917L238.644 62.8752C237.881 63.196 236.996 63.3067 236.387 63.185L236.31 62.1672C236.918 62.2778 237.704 62.2225 238.434 61.9017C239.363 61.4924 239.75 60.6849 239.43 59.9326C239.109 59.2136 238.412 58.9923 237.272 59.0255C235.713 59.0919 234.617 58.8485 234.12 57.7091C233.644 56.625 234.053 55.4634 235.171 54.7333L234.584 53.4168L235.392 53.0628L235.945 54.335C236.741 54.0142 237.372 53.9921 237.848 54.0474L237.903 55.0541C237.56 55.0209 236.896 54.9656 236.056 55.3306C235.049 55.7731 234.938 56.5364 235.171 57.0674C235.469 57.7423 236.1 57.875 237.449 57.8418C239.042 57.7976 240.016 58.1737 240.525 59.3463C240.978 60.3751 240.691 61.6584 239.441 62.477L240.038 63.8377L239.23 64.1917Z" fill="white"/>
<path d="M9.18741 102.656L14.1876 93.3301C14.1876 93.3301 20.283 93.85 23.0818 100.919C24.8186 105.3 30.7038 107.567 30.7038 107.567L25.6815 116.937C25.6815 116.937 17.9931 114.88 16.0904 109.835C14.0881 104.514 9.18741 102.656 9.18741 102.656Z" fill="#D4DEFF"/>
<path d="M22.8826 108.342C21.2233 109.736 18.5683 109.293 16.9421 107.368C15.3159 105.432 15.338 102.733 16.9974 101.35C18.6568 99.9565 21.3118 100.399 22.9379 102.324C24.5641 104.249 24.542 106.948 22.8826 108.342Z" fill="#E3EAFF"/>
<path d="M207.437 42.1221L200.401 34.2236C200.401 34.2236 202.99 28.6813 210.59 28.4822C215.302 28.3605 219.462 23.6147 219.462 23.6147L226.531 31.5575C226.531 31.5575 221.951 38.0622 216.564 38.1175C210.866 38.1618 207.437 42.1221 207.437 42.1221Z" fill="#D4DEFF"/>
<path d="M217.493 31.2146C218.234 33.25 216.906 35.5953 214.528 36.4581C212.15 37.321 209.627 36.3696 208.897 34.3342C208.156 32.2987 209.484 29.9534 211.862 29.0906C214.229 28.2277 216.752 29.1791 217.493 31.2146Z" fill="#E3EAFF"/>
<path d="M253.656 160.59L254.806 152.038C254.806 152.038 259.618 150.689 263.778 155.291C266.355 158.145 271.51 158.189 271.51 158.189L270.36 166.785C270.36 166.785 263.899 167.415 261.001 164.107C257.926 160.612 253.656 160.59 253.656 160.59Z" fill="#D4DEFF"/>
<path d="M265.747 161.021C264.884 162.559 262.716 162.99 260.924 161.972C259.132 160.966 258.379 158.897 259.242 157.359C260.105 155.822 262.273 155.39 264.065 156.408C265.857 157.415 266.61 159.472 265.747 161.021Z" fill="#E3EAFF"/>
<path d="M143.054 81.8031L141.87 72.9642C141.87 72.9642 136.903 71.5703 132.611 76.3161C129.945 79.2587 124.624 79.314 124.624 79.314L125.818 88.1971C125.818 88.1971 132.489 88.8498 135.487 85.4315C138.64 81.8252 143.054 81.8031 143.054 81.8031Z" fill="#D4DEFF"/>
<path d="M130.564 82.2345C131.46 83.8275 133.684 84.27 135.542 83.219C137.401 82.1792 138.175 80.0441 137.279 78.4511C136.383 76.8582 134.159 76.4156 132.301 77.4666C130.442 78.5175 129.668 80.6526 130.564 82.2345Z" fill="#E3EAFF"/>
<path d="M106.371 169.351H58.0833C55.9372 169.351 54.2004 167.614 54.2004 165.468V155.258C54.2004 153.111 55.9372 151.375 58.0833 151.375H106.382C108.528 151.375 110.265 153.111 110.265 155.258V165.468C110.265 167.614 108.517 169.351 106.371 169.351Z" fill="#E3EAFF"/>
<path d="M71.6124 157.835V162.891C71.6124 164.251 70.5062 165.358 69.1455 165.358H59.5765C59.0787 165.358 58.603 165.203 58.2159 164.948C57.5521 164.506 57.1096 163.754 57.1096 162.891V157.835C57.1096 156.474 58.2159 155.368 59.5765 155.368H69.1455C69.6987 155.368 70.2186 155.556 70.6279 155.866C71.2253 156.308 71.6124 157.028 71.6124 157.835Z" fill="#D6224C"/>
<path d="M91.1157 162.415H75.2411C74.1017 162.415 73.1835 161.497 73.1835 160.357C73.1835 159.218 74.1017 158.3 75.2411 158.3H91.1157C92.2551 158.3 93.1733 159.218 93.1733 160.357C93.1733 161.497 92.2551 162.415 91.1157 162.415Z" fill="#95A6DB"/>
<path d="M105.298 162.415H97.3437C96.2042 162.415 95.2861 161.497 95.2861 160.357C95.2861 159.218 96.2042 158.3 97.3437 158.3H105.298C106.437 158.3 107.355 159.218 107.355 160.357C107.355 161.497 106.426 162.415 105.298 162.415Z" fill="#4EAD60"/>
<path d="M70.6279 155.855L58.2159 164.948C57.5521 164.506 57.1096 163.754 57.1096 162.891V157.835C57.1096 156.474 58.2159 155.368 59.5765 155.368H69.1455C69.6987 155.357 70.2186 155.545 70.6279 155.855Z" fill="#E62552"/>
<path d="M66.7962 164.178C67.7123 164.152 68.4331 163.387 68.4062 162.471C68.3793 161.555 67.6148 160.834 66.6987 160.861C65.7827 160.888 65.0619 161.652 65.0888 162.569C65.1157 163.485 65.8801 164.205 66.7962 164.178Z" fill="#FAC832"/>
<path d="M70.3735 162.514C70.3735 163.433 69.6323 164.174 68.7141 164.174C67.7959 164.174 67.0547 163.433 67.0547 162.514C67.0547 161.596 67.7959 160.855 68.7141 160.855C69.6323 160.855 70.3735 161.596 70.3735 162.514Z" fill="#95A6DB"/>
<path d="M106.371 191.144H58.0833C55.9372 191.144 54.2004 189.407 54.2004 187.261V177.051C54.2004 174.904 55.9372 173.168 58.0833 173.168H106.382C108.528 173.168 110.265 174.904 110.265 177.051V187.261C110.265 189.407 108.517 191.144 106.371 191.144Z" fill="#E3EAFF"/>
<path d="M71.6124 179.617V184.673C71.6124 186.033 70.5062 187.139 69.1455 187.139H59.5765C59.0787 187.139 58.603 186.985 58.2159 186.73C57.5521 186.288 57.1096 185.535 57.1096 184.673V179.617C57.1096 178.256 58.2159 177.15 59.5765 177.15H69.1455C69.6987 177.15 70.2186 177.338 70.6279 177.648C71.2253 178.101 71.6124 178.82 71.6124 179.617Z" fill="#FABA23"/>
<path d="M91.1157 184.208H75.2411C74.1017 184.208 73.1835 183.29 73.1835 182.15C73.1835 181.011 74.1017 180.093 75.2411 180.093H91.1157C92.2551 180.093 93.1733 181.011 93.1733 182.15C93.1733 183.29 92.2551 184.208 91.1157 184.208Z" fill="#95A6DB"/>
<path d="M105.298 184.208H97.3437C96.2042 184.208 95.2861 183.29 95.2861 182.15C95.2861 181.011 96.2042 180.093 97.3437 180.093H105.298C106.437 180.093 107.355 181.011 107.355 182.15C107.355 183.29 106.426 184.208 105.298 184.208Z" fill="#4EAD60"/>
<path d="M70.6279 177.648L58.2159 186.741C57.5521 186.299 57.1096 185.546 57.1096 184.684V179.617C57.1096 178.256 58.2159 177.15 59.5765 177.15H69.1455C69.6987 177.15 70.2186 177.338 70.6279 177.648Z" fill="#FAD332"/>
<path d="M68.4044 184.307C68.4044 185.226 67.6632 185.967 66.7451 185.967C65.8269 185.967 65.0857 185.226 65.0857 184.307C65.0857 183.389 65.8269 182.648 66.7451 182.648C67.6632 182.648 68.4044 183.389 68.4044 184.307Z" fill="#E62552"/>
<path d="M70.3735 184.307C70.3735 185.226 69.6323 185.967 68.7141 185.967C67.7959 185.967 67.0547 185.226 67.0547 184.307C67.0547 183.389 67.7959 182.648 68.7141 182.648C69.6323 182.648 70.3735 183.389 70.3735 184.307Z" fill="#95A6DB"/>
</svg>
