<svg width="275" height="213" viewBox="0 0 275 213" fill="none" xmlns="http://www.w3.org/2000/svg">
<path d="M62.0129 158.915C62.0129 158.915 39.0196 123.472 27.1473 131.992C15.275 140.512 53.7126 157.644 61.9435 170.973L62.0129 158.915Z" fill="#A0A04D"/>
<path d="M59.8511 161.678C59.8511 161.678 16.0495 125.287 5.10198 140.257C-5.84552 155.228 47.3083 160.684 62.5331 173.504L59.8511 161.678Z" fill="#DFE2A1"/>
<path d="M70.5243 170.937C70.5243 170.937 52.4211 146.43 24.0639 151.216C-4.29327 155.99 -8.30466 189.769 15.8562 193.907C40.017 198.046 61.7501 178.844 70.6168 184.636C79.495 190.439 70.5243 170.937 70.5243 170.937Z" fill="#C6C46F"/>
<path d="M216.793 148.995C216.793 148.995 238.498 115.566 249.705 123.601C260.913 131.637 224.628 147.796 216.858 160.367L216.793 148.995Z" fill="#A0A04D"/>
<path d="M218.714 151.69C218.714 151.69 259.789 117.679 270.055 131.67C280.321 145.662 230.476 150.761 216.199 162.743L218.714 151.69Z" fill="#DFE2A1"/>
<path d="M208.688 160.35C208.688 160.35 225.71 137.471 252.374 141.939C279.037 146.396 282.809 177.929 260.091 181.793C237.373 185.656 216.938 167.731 208.601 173.138C200.253 178.555 208.688 160.35 208.688 160.35Z" fill="#C6C46F"/>
<path d="M71.7235 171.463C98.2533 171.463 101.628 183.399 107.532 174.928C114.847 169.666 129.378 189.372 138.927 192.145C150.863 195.61 173.581 217.172 193.987 211.396C214.394 205.621 190.137 179.824 185.902 167.502C181.666 155.181 191.292 129.384 207.849 114.368C224.405 99.3512 228.62 93.0538 247.892 73.6637C263.856 57.6021 252.305 36.0401 232.491 46.7112C216.703 55.2141 213.801 70.1984 185.902 59.6926C158.002 49.1868 133.36 68.8236 125.066 46.9864C116.773 25.1493 110.227 -3.72838 78.0918 0.397164C45.9566 4.52271 31.8876 52.7619 55.3747 59.6926C78.8618 66.6232 96.1884 106.667 67.6958 129.384C39.2032 152.101 46.3111 148.361 55.3747 151.441C78.0653 159.152 64.0228 171.463 71.7235 171.463Z" fill="#FDECD6"/>
<path d="M119.879 20.0132C122.591 19.5542 124.417 16.984 123.958 14.2724C123.499 11.5609 120.929 9.73487 118.217 10.1938C115.505 10.6528 113.679 13.223 114.138 15.9346C114.597 18.6461 117.168 20.4721 119.879 20.0132Z" fill="#FDECD6"/>
<path d="M133.74 26.1737C136.452 25.7147 138.278 23.1445 137.819 20.433C137.36 17.7214 134.79 15.8954 132.078 16.3544C129.367 16.8133 127.541 19.3835 128 22.0951C128.459 24.8066 131.029 26.6327 133.74 26.1737Z" fill="#FDECD6"/>
<path d="M32.8612 111.652C35.5727 111.193 37.3987 108.622 36.9397 105.911C36.4808 103.199 33.9106 101.373 31.199 101.832C28.4875 102.291 26.6615 104.861 27.1204 107.573C27.5794 110.285 30.1496 112.111 32.8612 111.652Z" fill="#FDECD6"/>
<path d="M33.8596 94.5903C34.8038 94.4304 35.4396 93.5355 35.2798 92.5913C35.12 91.6471 34.225 91.0112 33.2808 91.1711C32.3366 91.3309 31.7008 92.2259 31.8606 93.17C32.0204 94.1142 32.9154 94.7501 33.8596 94.5903Z" fill="#FDECD6"/>
<path d="M24.3903 73.9181C27.1019 73.4591 28.9279 70.8889 28.4689 68.1773C28.01 65.4658 25.4398 63.6398 22.7282 64.0988C20.0167 64.5577 18.1906 67.1279 18.6496 69.8395C19.1086 72.551 21.6788 74.377 24.3903 73.9181Z" fill="#FDECD6"/>
<path d="M239.995 116.968C242.707 116.509 244.533 113.939 244.074 111.227C243.615 108.516 241.045 106.69 238.333 107.149C235.621 107.608 233.795 110.178 234.254 112.889C234.713 115.601 237.284 117.427 239.995 116.968Z" fill="#FDECD6"/>
<path d="M243.479 94.9225C244.346 96.3172 246.942 96.271 249.277 94.8192C251.613 93.3675 252.804 91.06 251.937 89.6653C251.07 88.2706 248.474 88.3169 246.138 89.7686C243.803 91.2204 242.612 93.5279 243.479 94.9225Z" fill="#FDECD6"/>
<ellipse cx="44.132" cy="46.1788" rx="8.47077" ry="14.6313" transform="rotate(-16.572 44.132 46.1788)" fill="#FDECD6"/>
<mask id="mask0_116_1900" style="mask-type:alpha" maskUnits="userSpaceOnUse" x="48" y="24" width="181" height="171">
<path d="M210.668 194.18H65.9857C56.3994 194.18 48.6213 185.959 48.6213 175.807V43.1535C48.6213 33.0015 56.3994 24.7643 65.9857 24.7643H210.683C220.27 24.7643 228.048 33.0015 228.048 43.1535V175.807C228.032 185.959 220.254 194.18 210.668 194.18Z" fill="url(#paint0_linear_116_1900)"/>
</mask>
<g mask="url(#mask0_116_1900)">
<path d="M210.668 194.18H65.9857C56.3994 194.18 48.6213 185.959 48.6213 175.807V43.1535C48.6213 33.0015 56.3994 24.7643 65.9857 24.7643H210.683C220.27 24.7643 228.048 33.0015 228.048 43.1535V175.807C228.032 185.959 220.254 194.18 210.668 194.18Z" fill="url(#paint1_linear_116_1900)"/>
<ellipse opacity="0.1" cx="225.536" cy="39.2848" rx="75.4976" ry="118.187" transform="rotate(-46.3757 225.536 39.2848)" fill="white"/>
<ellipse opacity="0.1" cx="169.183" cy="62.7839" rx="113.246" ry="118.187" transform="rotate(-46.3757 169.183 62.7839)" fill="white"/>
</g>
<path d="M194.56 179.548H82.0931C72.5422 179.548 64.7928 171.267 64.7928 161.061V57.8835C64.7928 47.677 72.5422 39.3956 82.0931 39.3956H194.576C204.127 39.3956 211.876 47.677 211.876 57.8835V161.061C211.861 171.267 204.111 179.548 194.56 179.548Z" fill="#141718"/>
<path d="M193.774 178.234H161.847C158.393 178.234 155.832 175.791 156.641 173.248L164.078 149.791C164.656 147.976 166.804 146.688 169.283 146.688H186.338C188.816 146.688 190.965 147.976 191.543 149.791L198.979 173.248C199.789 175.791 197.228 178.234 193.774 178.234Z" fill="url(#paint2_linear_116_1900)"/>
<path d="M202.532 145.714H170.605C167.151 145.714 164.59 143.271 165.4 140.729L172.836 117.272C173.415 115.456 175.563 114.168 178.042 114.168H195.096C197.575 114.168 199.723 115.456 200.301 117.272L207.738 140.729C208.548 143.271 205.986 145.714 202.532 145.714Z" fill="url(#paint3_linear_116_1900)"/>
<path d="M202.532 113.194H170.605C167.151 113.194 164.59 110.751 165.4 108.209L172.836 84.7521C173.415 82.9363 175.563 81.6487 178.042 81.6487H195.096C197.575 81.6487 199.723 82.9363 200.301 84.7521L207.738 108.209C208.548 110.751 205.986 113.194 202.532 113.194Z" fill="url(#paint4_linear_116_1900)"/>
<path d="M190.634 80.8398H158.707C155.253 80.8398 152.692 78.3967 153.501 75.8546L160.938 52.3976C161.516 50.5818 163.664 49.2942 166.143 49.2942H183.198C185.676 49.2942 187.825 50.5818 188.403 52.3976L195.839 75.8546C196.649 78.3967 194.088 80.8398 190.634 80.8398Z" fill="url(#paint5_linear_116_1900)"/>
<path opacity="0.25" d="M173.166 179.548H83.4641C73.1563 179.548 64.7928 171.267 64.7928 161.061V57.8835C64.7928 47.677 73.1563 39.3956 83.4641 39.3956H173.183C183.491 39.3956 191.854 47.677 191.854 57.8835V161.061C191.838 171.267 183.474 179.548 173.166 179.548Z" fill="black"/>
<path d="M165.285 179.548H82.1062C72.5481 179.548 64.7928 171.267 64.7928 161.061V57.8835C64.7928 47.677 72.5481 39.3956 82.1062 39.3956H165.3C174.858 39.3956 182.614 47.677 182.614 57.8835V161.061C182.598 171.267 174.843 179.548 165.285 179.548Z" fill="url(#paint6_linear_116_1900)"/>
<mask id="mask1_116_1900" style="mask-type:alpha" maskUnits="userSpaceOnUse" x="65" y="40" width="104" height="139">
<path d="M151.341 178.008H82.9748C73.3623 178.008 65.563 169.752 65.563 159.575V59.3688C65.563 49.1926 73.3623 40.9358 82.9748 40.9358H151.341C160.953 40.9358 168.752 49.1926 168.752 59.3688V159.592C168.752 169.768 160.953 178.008 151.341 178.008Z" fill="url(#paint7_linear_116_1900)"/>
</mask>
<g mask="url(#mask1_116_1900)">
<path d="M151.341 178.008H82.9748C73.3623 178.008 65.563 169.752 65.563 159.575V59.3688C65.563 49.1926 73.3623 40.9358 82.9748 40.9358H151.341C160.953 40.9358 168.752 49.1926 168.752 59.3688V159.592C168.752 169.768 160.953 178.008 151.341 178.008Z" fill="url(#paint8_linear_116_1900)"/>
<ellipse opacity="0.1" cx="153.103" cy="70.8398" rx="83.7327" ry="61.6056" transform="rotate(50.8682 153.103 70.8398)" fill="white"/>
<ellipse opacity="0.1" cx="129.233" cy="96.3421" rx="83.7327" ry="67.564" transform="rotate(50.8682 129.233 96.3421)" fill="white"/>
</g>
<g filter="url(#filter0_i_116_1900)">
<path d="M115.034 146.704C129.865 146.704 141.888 131.258 141.888 112.204C141.888 93.1498 129.865 77.7034 115.034 77.7034C100.203 77.7034 88.1799 93.1498 88.1799 112.204C88.1799 131.258 100.203 146.704 115.034 146.704Z" fill="#AEB2B6"/>
</g>
<path d="M108.093 143.568C121.573 143.568 132.501 129.526 132.501 112.204C132.501 94.882 121.573 80.8398 108.093 80.8398C94.613 80.8398 83.6851 94.882 83.6851 112.204C83.6851 129.526 94.613 143.568 108.093 143.568Z" fill="#E3E4E5"/>
<path d="M120.537 112.204C120.537 120.755 115.976 127.919 109.828 129.949C109.498 130.065 109.167 130.148 108.837 130.23C108.01 130.428 107.151 130.527 106.275 130.527C98.3926 130.527 92.0138 122.323 92.0138 112.204C92.0138 102.085 98.3926 93.8807 106.275 93.8807C107.151 93.8807 108.01 93.9798 108.837 94.1779C109.167 94.2604 109.498 94.3429 109.828 94.4585C115.992 96.4724 120.537 103.653 120.537 112.204Z" fill="#AEB2B6"/>
<path d="M109.828 129.949C115.742 129.949 120.537 122.005 120.537 112.204C120.537 102.403 115.742 94.4585 109.828 94.4585C103.914 94.4585 99.1199 102.403 99.1199 112.204C99.1199 122.005 103.914 129.949 109.828 129.949Z" fill="#F9F9F9"/>
<rect x="60.1725" y="66.3481" width="5.39049" height="32.343" rx="2.69525" fill="#4A5C6D"/>
<rect x="60.1725" y="120.253" width="5.39049" height="32.343" rx="2.69525" fill="#4A5C6D"/>
<defs>
<filter id="filter0_i_116_1900" x="88.1799" y="77.7034" width="53.7076" height="69.001" filterUnits="userSpaceOnUse" color-interpolation-filters="sRGB">
<feFlood flood-opacity="0" result="BackgroundImageFix"/>
<feBlend mode="normal" in="SourceGraphic" in2="BackgroundImageFix" result="shape"/>
<feColorMatrix in="SourceAlpha" type="matrix" values="0 0 0 0 0 0 0 0 0 0 0 0 0 0 0 0 0 0 127 0" result="hardAlpha"/>
<feOffset dy="4"/>
<feComposite in2="hardAlpha" operator="arithmetic" k2="-1" k3="1"/>
<feColorMatrix type="matrix" values="0 0 0 0 1 0 0 0 0 1 0 0 0 0 1 0 0 0 0.25 0"/>
<feBlend mode="normal" in2="shape" result="effect1_innerShadow_116_1900"/>
</filter>
<linearGradient id="paint0_linear_116_1900" x1="138.335" y1="24.7643" x2="138.335" y2="194.18" gradientUnits="userSpaceOnUse">
<stop stop-color="#698193"/>
<stop offset="1" stop-color="#68819E"/>
</linearGradient>
<linearGradient id="paint1_linear_116_1900" x1="138.335" y1="24.7643" x2="138.335" y2="194.18" gradientUnits="userSpaceOnUse">
<stop stop-color="#698193"/>
<stop offset="1" stop-color="#68819E"/>
</linearGradient>
<linearGradient id="paint2_linear_116_1900" x1="177.81" y1="146.688" x2="177.81" y2="178.234" gradientUnits="userSpaceOnUse">
<stop stop-color="#FFC300"/>
<stop offset="1" stop-color="#E27212"/>
</linearGradient>
<linearGradient id="paint3_linear_116_1900" x1="186.569" y1="114.168" x2="186.569" y2="145.714" gradientUnits="userSpaceOnUse">
<stop stop-color="#FFC300"/>
<stop offset="1" stop-color="#E27212"/>
</linearGradient>
<linearGradient id="paint4_linear_116_1900" x1="186.569" y1="81.6487" x2="186.569" y2="113.194" gradientUnits="userSpaceOnUse">
<stop stop-color="#FFE800"/>
<stop offset="1" stop-color="#E27212"/>
</linearGradient>
<linearGradient id="paint5_linear_116_1900" x1="174.67" y1="49.2942" x2="174.67" y2="80.8398" gradientUnits="userSpaceOnUse">
<stop stop-color="#FFD60A"/>
<stop offset="1" stop-color="#E27212"/>
</linearGradient>
<linearGradient id="paint6_linear_116_1900" x1="123.703" y1="39.3956" x2="123.703" y2="179.548" gradientUnits="userSpaceOnUse">
<stop stop-color="#202F3E"/>
<stop offset="1" stop-color="#192336"/>
</linearGradient>
<linearGradient id="paint7_linear_116_1900" x1="117.158" y1="40.9358" x2="117.158" y2="178.008" gradientUnits="userSpaceOnUse">
<stop stop-color="#698193"/>
<stop offset="1" stop-color="#68819E"/>
</linearGradient>
<linearGradient id="paint8_linear_116_1900" x1="117.158" y1="40.9358" x2="117.158" y2="178.008" gradientUnits="userSpaceOnUse">
<stop stop-color="#698193"/>
<stop offset="1" stop-color="#68819E"/>
</linearGradient>
</defs>
</svg>
