<svg width="277" height="260" viewBox="0 0 277 260" fill="none" xmlns="http://www.w3.org/2000/svg">
<path d="M255.778 149.087C257.299 141.289 254.953 129.118 246.776 113.777C251.974 119.672 257.996 122.525 261.293 120.306C265.35 117.58 263.955 108.452 258.186 99.8301C252.418 91.2086 244.494 86.4541 240.436 89.1166C237.647 90.955 237.457 95.9631 239.485 101.668C235.555 95.7729 230.801 89.4336 225.222 82.9041C213.875 69.5281 194.286 55.5816 181.164 49.8128C168.612 44.2342 156.25 44.4244 148.199 49.0521C147.502 48.3548 146.614 47.7842 145.6 47.4673C141.923 46.1994 137.866 48.1646 136.598 51.8414C135.837 54.1235 136.281 56.4691 137.549 58.3075C129.118 67.9433 123.286 80.2416 113.777 89.18C101.795 100.464 84.2353 102.746 68.1334 106.106C52.0315 109.466 34.4082 115.869 27.6251 130.893C22.9974 141.163 24.5822 153.144 28.1323 163.857C37.0707 191.053 58.0539 214.001 84.2987 225.285C98.4988 231.371 115.995 233.78 128.484 224.651C128.991 224.271 129.498 223.891 130.005 223.447C129.371 228.138 132.097 232.829 136.788 234.414C142.113 236.252 147.946 233.463 149.784 228.138C151.622 222.813 148.833 216.981 143.508 215.142C141.416 214.382 139.197 214.445 137.232 215.016C144.903 202.717 146.741 185.918 154.538 173.049C157.011 168.929 160.561 164.998 165.252 164.111C168.105 163.54 171.084 164.238 173.873 164.998C183.699 167.851 192.955 172.542 202.654 175.775C212.353 179.008 223.13 180.72 232.829 177.36C244.811 173.113 253.369 161.512 255.778 149.087Z" fill="#FDECD6"/>
<path d="M30.4145 175.648C25.343 167.471 17.7992 162.906 13.5518 165.569C9.30449 168.168 10.0018 176.98 15.0733 185.157C20.1447 193.335 27.6885 197.899 31.9359 195.237C36.1832 192.638 35.4859 183.826 30.4145 175.648Z" fill="#FDECD6"/>
<path d="M36.2466 198.343C34.852 197.836 33.3305 198.597 32.8234 199.991C32.3162 201.386 33.0769 202.908 34.4716 203.415C35.8662 203.922 37.3877 203.161 37.8948 201.766C38.402 200.372 37.6413 198.787 36.2466 198.343Z" fill="#FDECD6"/>
<path d="M236.252 83.9817C237.647 84.4888 239.168 83.7281 239.612 82.3335C240.119 80.9388 239.359 79.4174 237.964 78.9736C236.569 78.4665 235.048 79.2272 234.604 80.6218C234.097 81.9531 234.858 83.4745 236.252 83.9817Z" fill="#FDECD6"/>
<path d="M257.307 86.667C260.828 86.071 263.199 82.7333 262.603 79.2122C262.007 75.6911 258.67 73.3198 255.148 73.9158C251.627 74.5118 249.256 77.8494 249.852 81.3706C250.448 84.8917 253.786 87.263 257.307 86.667Z" fill="#FDECD6"/>
<path d="M266.808 100.718C268.203 101.225 269.724 100.464 270.168 99.0693C270.675 97.6747 269.914 96.1532 268.52 95.7095C267.125 95.2023 265.603 95.963 265.16 97.3577C264.653 98.689 265.413 100.21 266.808 100.718Z" fill="#FDECD6"/>
<path d="M80.4317 99.2595C84.6157 99.2595 87.9755 95.8363 87.9755 91.6523C87.9755 87.4684 84.5523 84.1086 80.3684 84.1086C76.1844 84.1086 72.8246 87.5318 72.8246 91.7157C72.8246 95.8997 76.2478 99.2595 80.4317 99.2595Z" fill="#FDECD6"/>
<path d="M176.346 53.2994C178.755 53.2994 180.72 51.3342 180.72 48.8619C180.72 46.4529 178.755 44.4877 176.282 44.4877C173.873 44.4877 171.908 46.4529 171.908 48.9253C171.972 51.3976 173.937 53.2994 176.346 53.2994Z" fill="#FDECD6"/>
<path d="M186.806 43.1565C188.327 43.1565 189.595 41.8886 189.595 40.3672C189.595 38.8457 188.327 37.5779 186.806 37.5779C185.284 37.5779 184.016 38.8457 184.016 40.3672C184.016 41.8886 185.221 43.1565 186.806 43.1565Z" fill="#FDECD6"/>
<path d="M194.096 61.9843C198.85 61.9209 202.654 58.0539 202.654 53.2994C202.591 48.5449 198.724 44.7413 193.969 44.7413C189.215 44.8047 185.411 48.6717 185.411 53.4262C185.411 58.2441 189.341 62.0477 194.096 61.9843Z" fill="#FDECD6"/>
<path d="M62.6182 101.542C64.203 101.542 65.4709 100.21 65.4709 98.6256C65.4709 97.0408 64.1397 95.7729 62.5548 95.7729C60.97 95.7729 59.7021 97.1042 59.7021 98.689C59.7021 100.274 61.0334 101.542 62.6182 101.542Z" fill="#FDECD6"/>
<path d="M205.507 58.8146C204.619 52.0316 204.556 44.1074 214.445 36.944C214.255 41.2547 215.713 46.136 214.572 49.5592C213.367 52.9825 208.993 56.9762 205.507 58.8146Z" fill="#4B5923"/>
<path d="M187.566 102.176C186.552 103.887 187.44 105.028 189.088 103.063C190.736 101.098 196.568 91.9059 199.104 83.6648C201.576 75.4237 203.605 62.8718 206.331 57.4834C204.619 59.0682 201.64 67.8799 200.689 73.1415C198.85 82.5237 194.666 93.8711 187.566 102.176Z" fill="#4B5923"/>
<path d="M190.482 47.2771C193.335 49.8762 197.963 50.0664 200.689 53.8066C203.415 57.5468 202.654 63.696 201.259 69.6549C198.343 68.3237 192.448 67.1826 191.624 60.3995C190.799 53.6798 191.37 49.4959 190.482 47.2771Z" fill="#4B5923"/>
<path d="M172.859 69.2111C174.634 69.7817 179.959 75.804 183.573 78.8469C187.186 81.8898 190.673 83.0309 194.666 81.0657C198.66 79.1005 199.358 78.8469 199.358 78.8469C199.358 78.8469 198.533 76.5014 196.949 72.4442C195.427 68.387 193.399 65.4709 188.961 65.0906C184.524 64.7102 179.389 69.4013 172.859 69.2111Z" fill="#4B5923"/>
<path d="M178.121 98.2453C180.973 96.3435 184.777 96.2801 187.123 95.9631C189.405 95.6461 192.701 93.7443 194.286 90.3211C195.934 86.8979 197.329 84.7425 197.329 84.7425C197.329 84.7425 193.272 82.8407 188.01 84.3621C184.207 85.4398 182.432 89.3068 180.973 92.4765C179.452 95.6461 179.325 96.7238 178.121 98.2453Z" fill="#4B5923"/>
<path d="M198.407 84.1086C198.914 85.2497 203.541 86.8345 205.126 90.6381C206.711 94.4417 203.351 100.591 203.541 104.077C200.625 101.288 197.139 97.2944 197.583 92.9836C198.026 88.6729 198.914 85.3764 198.407 84.1086Z" fill="#4B5923"/>
<path d="M199.991 79.354C201.069 80.6219 207.852 88.9264 217.488 84.2353C222.813 80.6853 229.279 79.1005 229.279 79.1005C229.279 79.1005 225.349 77.0085 222.813 73.9022C220.277 70.7959 216.284 69.7183 212.29 70.7959C208.296 71.937 202.4 78.3397 199.991 79.354Z" fill="#4B5923"/>
<path d="M202.4 69.5915C203.478 69.9084 209.247 73.2049 216.157 66.295C223.067 59.3851 224.398 58.3708 224.398 58.3708C224.398 58.3708 219.58 58.1173 216.664 56.9762C213.811 55.8351 209.691 58.6878 207.852 61.0968C205.95 63.5057 203.922 67.9432 202.4 69.5915Z" fill="#4B5923"/>
<path d="M47.8476 109.085C41.4449 108.452 34.535 106.613 32.76 94.9488C36.4368 96.0899 41.3815 95.7729 43.8539 97.7381C46.3896 99.7667 47.8476 105.155 47.8476 109.085Z" fill="#4B5923"/>
<path d="M77.6425 137.422C78.6568 138.817 80.1148 138.183 79.1005 136.091C78.0862 133.999 72.7612 125.821 66.6754 121.384C60.5897 116.946 50.5101 112.002 47.0869 108.008C47.7208 110.1 54.0602 115.171 58.1807 117.39C65.5977 121.384 73.6487 128.23 77.6425 137.422Z" fill="#4B5923"/>
<path d="M30.9216 121.764C34.535 119.419 36.8172 114.728 41.3181 112.826C45.819 110.924 50.8271 113.143 55.4548 115.932C52.9825 118.595 49.2423 124.363 42.9029 123.666C36.6904 122.905 33.2672 121.384 30.9216 121.764Z" fill="#4B5923"/>
<path d="M42.0154 144.839C43.3467 143.128 51.0807 139.134 55.328 136.154C59.6388 133.175 62.2379 129.878 62.3647 125.314C62.4915 120.813 62.5549 119.989 62.5549 119.989C62.5549 119.989 60.0825 120.306 55.8352 120.94C51.5878 121.574 48.1012 122.969 45.7556 127.406C43.4735 131.907 45.1851 138.183 42.0154 144.839Z" fill="#4B5923"/>
<path d="M69.8451 146.171C69.5281 142.811 71.1763 138.88 71.937 136.471C72.6978 134.062 72.571 130.322 70.2888 127.85C68.0067 125.378 66.8022 123.412 66.8022 123.412C66.8022 123.412 63.3156 127.153 62.2379 132.858C61.4772 136.979 64.0129 139.641 66.1049 141.923C68.2602 144.142 69.0843 144.586 69.8451 146.171Z" fill="#4B5923"/>
<path d="M66.8022 122.145C68.0067 121.891 71.5567 117.517 75.6139 116.819C79.671 116.059 83.4746 120.94 86.7077 121.511C82.9675 123.856 77.8326 126.455 74.2826 125.061C70.6058 123.603 68.1335 121.954 66.8022 122.145Z" fill="#4B5923"/>
<path d="M63.379 119.419C64.9638 118.658 75.3603 113.586 75.6773 102.683C75.0434 96.4069 76.6282 89.4336 76.6282 89.4336C76.6282 89.4336 73.0148 92.9836 69.0844 94.8854C65.2174 96.7872 62.4281 100.591 61.5406 104.965C60.6531 109.276 63.5692 116.756 63.379 119.419Z" fill="#4B5923"/>
<path d="M55.8985 114.791C56.6593 113.713 62.1745 108.642 59.3218 100.02C56.4691 91.3354 56.1521 89.7506 56.1521 89.7506C56.1521 89.7506 53.6798 94.6318 51.3976 97.2944C49.1155 99.9569 49.686 104.775 50.9539 107.247C52.2217 109.719 55.1378 112.826 55.8985 114.791Z" fill="#4B5923"/>
<path d="M44.5511 196.125C42.6493 202.274 39.5431 208.74 27.7519 208.169C29.5903 204.746 30.2242 199.865 32.6966 197.836C35.0421 195.744 40.6207 195.364 44.5511 196.125Z" fill="#4B5923"/>
<path d="M78.0862 172.415C79.671 171.655 79.3541 170.133 77.0719 170.704C74.7897 171.274 65.7879 174.888 60.2727 180.023C54.7575 185.094 47.911 194.033 43.3467 196.632C45.5654 196.442 51.778 191.18 54.6941 187.566C60.0191 181.164 68.3236 174.571 78.0862 172.415Z" fill="#4B5923"/>
<path d="M53.6164 215.206C52.0316 211.212 47.911 208.042 46.8967 203.288C45.9458 198.47 49.0521 193.969 52.6655 190.039C54.7575 192.955 59.7655 197.836 57.8003 203.858C55.8985 209.817 53.7432 212.86 53.6164 215.206Z" fill="#4B5923"/>
<path d="M78.4666 208.803C77.0719 207.155 74.5996 198.787 72.5076 194.033C70.4156 189.215 67.6897 186.045 63.2522 185.031C58.8146 184.016 58.0539 183.763 58.0539 183.763C58.0539 183.763 57.8638 186.235 57.6736 190.546C57.4834 194.857 58.1173 198.534 62.0477 201.703C66.0415 204.936 72.5076 204.429 78.4666 208.803Z" fill="#4B5923"/>
<path d="M85.1862 181.798C81.8264 181.481 78.3398 179.072 76.0576 177.867C73.8388 176.663 70.0986 176.029 67.2459 177.804C64.3932 179.516 62.2379 180.34 62.2379 180.34C62.2379 180.34 65.2174 184.524 70.6058 186.679C74.5362 188.264 77.6424 186.299 80.2416 184.65C82.9041 183.002 83.4746 182.241 85.1862 181.798Z" fill="#4B5923"/>
<path d="M61.0334 180.086C61.0334 178.818 57.42 174.571 57.5468 170.387C57.6101 166.266 63.1254 163.477 64.3298 160.434C65.8513 164.555 67.4361 170.07 65.3441 173.366C63.1888 176.663 61.0968 178.755 61.0334 180.086Z" fill="#4B5923"/>
<path d="M57.6735 182.939C57.2298 181.227 54.3137 170.07 43.6636 167.598C37.3877 167.027 30.8582 164.111 30.8582 164.111C30.8582 164.111 33.5841 168.358 34.7252 172.542C35.8663 176.726 39.0359 180.213 43.1565 181.861C47.1503 183.636 55.0744 182.241 57.6735 182.939Z" fill="#4B5923"/>
<path d="M51.6512 189.341C50.7637 188.391 46.8333 181.988 37.7681 183.129C28.7028 184.27 27.0546 184.207 27.0546 184.207C27.0546 184.207 31.3653 187.566 33.5207 190.356C35.6761 193.145 40.494 193.462 43.2199 192.765C46.0092 192.004 49.5592 189.722 51.6512 189.341Z" fill="#4B5923"/>
<path d="M221.545 126.455C225.222 125.885 229.469 124.49 233.083 116.059C230.801 116.946 228.138 116.756 226.3 118.214C224.461 119.736 222.433 123.603 221.545 126.455Z" fill="#4B5923"/>
<path d="M198.724 147.185C197.836 148.199 197.202 147.755 198.216 146.234C199.231 144.713 203.985 138.817 208.359 135.521C212.734 132.224 219.39 128.547 222.243 125.631C221.418 127.153 216.791 130.893 214.001 132.541C208.993 135.521 203.034 140.529 198.724 147.185Z" fill="#4B5923"/>
<path d="M228.138 135.33C226.68 133.682 226.426 130.386 224.334 129.054C222.243 127.723 219.009 129.371 215.776 131.463C216.537 133.302 217.361 137.422 221.038 136.852C224.715 136.218 226.934 135.077 228.138 135.33Z" fill="#4B5923"/>
<path d="M216.854 152.066C216.474 150.862 213.114 148.072 211.402 145.98C209.691 143.888 208.93 141.543 209.881 138.31C210.832 135.077 210.959 134.506 210.959 134.506C210.959 134.506 212.226 134.696 214.445 135.077C216.664 135.457 218.312 136.408 218.629 139.578C218.946 142.747 216.601 147.312 216.854 152.066Z" fill="#4B5923"/>
<path d="M201.133 153.334C202.083 150.925 202.02 148.136 202.147 146.361C202.274 144.649 203.161 141.923 204.936 140.148C206.711 138.373 207.852 136.915 207.852 136.915C207.852 136.915 208.993 139.514 208.296 143.635C207.789 146.614 205.824 148.516 204.112 150.228C202.464 151.939 201.893 152.193 201.133 153.334Z" fill="#4B5923"/>
<path d="M208.169 136.091C207.535 135.901 206.584 132.858 204.492 132.351C202.4 131.844 199.231 135.394 197.329 135.901C198.914 137.549 201.133 139.324 203.478 138.246C205.697 137.169 207.472 135.964 208.169 136.091Z" fill="#4B5923"/>
<path d="M210.642 134.062C209.944 133.492 205.317 130.069 207.535 122.208C209.31 117.707 209.944 112.699 209.944 112.699C209.944 112.699 211.212 115.171 212.924 116.503C214.635 117.834 215.333 120.56 214.889 123.666C214.445 126.709 211.149 132.161 210.642 134.062Z" fill="#4B5923"/>
<path d="M215.84 130.639C215.65 129.879 213.748 126.329 217.234 120.053C220.721 113.777 221.228 112.636 221.228 112.636C221.228 112.636 221.482 116.122 222.179 118.024C222.876 119.926 221.482 123.349 220.214 125.187C219.009 126.962 216.664 129.181 215.84 130.639Z" fill="#4B5923"/>
<path d="M82.8407 147.058C81.6362 147.565 79.4809 153.397 74.4094 156.821C69.338 160.244 60.7799 164.935 50.1932 163.16C39.6065 161.385 32.8868 156.187 26.0403 149.467C19.1305 142.747 17.2287 140.402 14.8197 139.641C17.7992 138.754 23.1243 133.746 27.9421 130.576C32.76 127.406 43.1565 122.842 56.7861 125.061C70.4156 127.279 78.9737 137.866 80.305 141.226C81.6362 144.586 82.5238 145.346 83.0943 145.917C83.6648 146.488 82.8407 147.058 82.8407 147.058Z" fill="#92A44B"/>
<path d="M75.2969 146.551C74.1558 151.369 68.1969 158.088 64.2665 162.019C64.9004 161.829 65.5977 161.575 66.2317 161.322C67.0558 160.497 67.7531 159.737 68.1969 159.23C71.3665 155.743 75.2969 150.735 76.1844 146.678V146.551V146.424C74.5996 139.514 72.571 134.379 70.7326 130.829C70.2254 130.449 69.7183 130.132 69.1478 129.752C71.113 133.302 73.5219 138.754 75.2969 146.551Z" fill="#C0D254"/>
<path d="M63.3156 145.156C61.2236 150.798 53.1093 159.737 49.8762 163.16C50.003 163.16 50.0664 163.223 50.1932 163.223C50.4467 163.287 50.7003 163.287 50.9539 163.35C54.5039 159.61 62.2379 150.988 64.2031 145.346L64.2665 145.22L64.2031 145.093C62.1111 139.387 60.1459 134.95 58.3709 131.527C56.7861 128.484 55.4548 126.328 54.4405 124.807C54.0602 124.744 53.6798 124.744 53.2361 124.68C55.328 127.47 59.195 133.809 63.3156 145.156Z" fill="#C0D254"/>
<path d="M51.0807 143.888C49.369 148.579 43.4101 155.616 39.6065 159.737C39.86 159.863 40.177 159.99 40.4306 160.117C44.2976 155.87 50.2565 148.833 51.9682 144.015L52.0316 143.888L51.9682 143.762C49.8762 138.056 47.911 133.619 46.136 130.195C45.0583 128.04 44.044 126.328 43.1565 124.997C42.8395 125.061 42.5226 125.124 42.2056 125.187C44.361 128.484 47.6574 134.443 51.0807 143.888Z" fill="#C0D254"/>
<path d="M40.811 142.43L40.7476 142.304C38.6556 136.598 36.6904 132.161 34.9154 128.737C34.6618 128.23 34.4083 127.787 34.2181 127.343C33.9011 127.47 33.6475 127.596 33.394 127.66C35.2958 131.146 37.5779 135.964 39.9235 142.367C38.6556 145.854 35.1056 150.545 31.7457 154.475C31.9993 154.665 32.1895 154.855 32.4431 155.046C35.8663 151.052 39.4797 146.171 40.811 142.557V142.43Z" fill="#C0D254"/>
<path d="M29.4002 141.163L29.3368 141.036C28.1323 137.676 26.9278 134.696 25.7867 132.161C25.5332 132.351 25.2796 132.541 25.026 132.731C26.1037 135.204 27.2448 137.993 28.4493 141.163C27.7519 143.128 26.2305 145.537 24.5189 147.946C24.7091 148.136 24.9626 148.389 25.1528 148.58C26.9912 146.044 28.5761 143.445 29.3368 141.353L29.4002 141.163Z" fill="#C0D254"/>
<path d="M90.6381 148.009C90.6381 148.009 70.9228 146.424 60.9066 145.283C50.8905 144.142 20.8421 140.212 20.8421 140.212C20.8421 140.212 57.103 144.015 61.287 144.522C65.4709 145.029 88.3559 146.171 90.6381 146.488C91.4622 146.614 91.7158 147.946 90.6381 148.009Z" fill="#C0D254"/>
<path d="M199.294 110.544C199.611 109.973 198.597 107.057 199.421 104.141C200.308 101.225 202.083 96.7873 206.648 94.1247C211.275 91.4622 215.459 91.3988 220.214 91.7792C224.968 92.1595 226.426 92.4765 227.568 92.0328C226.743 93.3006 226.236 96.914 225.412 99.64C224.588 102.366 222.052 107.374 216.093 110.797C210.198 114.22 203.605 112.889 202.02 112.002C200.435 111.114 199.865 111.114 199.484 111.114C199.104 111.051 199.294 110.544 199.294 110.544Z" fill="#92A44B"/>
<path d="M202.337 108.388C201.259 106.169 201.45 101.732 201.703 99.006C201.513 99.3229 201.323 99.5765 201.196 99.8935C201.133 100.464 201.133 100.971 201.069 101.352C200.942 103.697 201.006 106.803 201.957 108.642V108.705H202.02C204.809 110.861 207.155 112.128 208.993 112.953C209.31 112.953 209.627 112.889 209.944 112.826C208.042 112.128 205.443 110.797 202.337 108.388Z" fill="#C0D254"/>
<path d="M207.345 105.155C206.394 102.366 206.648 96.3435 206.838 94.0614C206.775 94.0614 206.775 94.1248 206.711 94.1248C206.584 94.1882 206.521 94.2515 206.394 94.3149C206.204 96.8507 205.95 102.556 206.965 105.345V105.409L207.028 105.472C209.627 106.994 211.783 108.071 213.494 108.832C215.016 109.529 216.22 109.91 217.108 110.163C217.298 110.036 217.425 109.973 217.615 109.846C215.903 109.403 212.48 108.198 207.345 105.155Z" fill="#C0D254"/>
<path d="M212.417 101.795C211.592 99.4497 211.656 94.8854 211.846 92.0961C211.719 92.1595 211.529 92.1595 211.402 92.2229C211.275 95.0756 211.212 99.6399 212.036 101.985V102.049L212.1 102.112C214.699 103.634 216.854 104.711 218.566 105.472C219.643 105.916 220.594 106.296 221.355 106.55C221.482 106.423 221.545 106.296 221.672 106.169C219.77 105.535 216.664 104.331 212.417 101.795Z" fill="#C0D254"/>
<path d="M216.791 99.1328L216.854 99.1962C219.453 100.718 221.609 101.795 223.32 102.556C223.574 102.683 223.827 102.746 224.018 102.873C224.081 102.746 224.144 102.619 224.208 102.493C222.369 101.732 220.024 100.654 217.108 98.8792C216.537 97.1676 216.41 94.2515 216.41 91.7158C216.284 91.7158 216.093 91.7158 215.967 91.7158C215.903 94.3149 216.03 97.3578 216.727 99.1328H216.791Z" fill="#C0D254"/>
<path d="M221.545 96.0265L221.609 96.0899C223.13 96.9774 224.525 97.7382 225.729 98.3721C225.793 98.2453 225.793 98.0551 225.856 97.9283C224.651 97.3578 223.32 96.6605 221.862 95.773C221.545 94.8221 221.355 93.4274 221.228 91.9694C221.101 91.9694 220.911 91.9694 220.784 91.906C220.848 93.4908 221.101 94.9489 221.482 95.9632L221.545 96.0265Z" fill="#C0D254"/>
<path d="M195.998 112.636C195.998 112.636 204.049 107.057 208.233 104.331C212.417 101.605 225.159 93.6809 225.159 93.6809C225.159 93.6809 210.134 103.634 208.359 104.711C206.584 105.852 197.519 112.572 196.505 113.143C196.124 113.46 195.617 113.016 195.998 112.636Z" fill="#C0D254"/>
<path d="M171.211 102.619C170.64 102.049 166.773 102.239 163.604 100.147C160.434 98.0551 155.68 94.3149 154.158 87.8488C152.637 81.3827 154.031 76.3112 156.187 70.796C158.342 65.2808 159.23 63.6326 159.103 62.0478C160.307 63.5058 164.491 65.4076 167.407 67.3728C170.387 69.338 175.458 74.2193 177.487 82.5238C179.452 90.8283 175.522 98.2453 173.873 99.8301C172.289 101.415 172.035 102.049 171.845 102.556C171.718 103 171.211 102.619 171.211 102.619Z" fill="#92A44B"/>
<path d="M169.689 98.2453C166.647 98.7525 161.385 96.9774 158.215 95.6462C158.532 95.9632 158.786 96.2801 159.103 96.5971C159.737 96.8507 160.371 97.1042 160.814 97.231C163.54 98.1819 167.344 99.2596 169.88 98.8159H169.943L170.006 98.7525C173.556 96.1533 176.029 93.8078 177.614 91.906C177.677 91.5256 177.74 91.1453 177.804 90.7649C176.219 92.6667 173.683 95.3292 169.689 98.2453Z" fill="#C0D254"/>
<path d="M167.598 91.0185C163.857 91.2087 156.821 88.6729 154.095 87.6586C154.095 87.722 154.095 87.7854 154.158 87.8488C154.222 87.9756 154.222 88.1658 154.285 88.2926C157.264 89.4337 164.047 91.7792 167.724 91.5256H167.851L167.914 91.4622C170.704 88.9265 172.732 86.7077 174.254 84.8693C175.585 83.2845 176.536 81.9532 177.106 81.0023C177.043 80.7488 176.98 80.5586 176.916 80.305C175.775 82.2068 173.049 85.947 167.598 91.0185Z" fill="#C0D254"/>
<path d="M165.379 83.7282C162.272 83.855 156.884 82.1434 153.588 81.0023C153.588 81.1925 153.588 81.3826 153.588 81.5728C156.947 82.7773 162.399 84.4889 165.569 84.2987H165.696L165.759 84.2353C168.548 81.6996 170.577 79.4809 172.098 77.6424C173.049 76.5014 173.81 75.4871 174.381 74.7264C174.254 74.5362 174.19 74.4094 174.064 74.2192C172.542 76.2478 169.943 79.5442 165.379 83.7282Z" fill="#C0D254"/>
<path d="M163.731 77.5157L163.794 77.4523C166.583 74.9166 168.612 72.6978 170.133 70.8594C170.323 70.6058 170.577 70.3522 170.767 70.0987C170.64 69.9719 170.514 69.8451 170.387 69.7183C168.865 71.6201 166.647 74.0924 163.54 76.9451C161.258 77.0719 157.708 76.121 154.665 75.1701C154.602 75.3603 154.539 75.5505 154.539 75.6773C157.645 76.6282 161.322 77.5791 163.667 77.4523L163.731 77.5157Z" fill="#C0D254"/>
<path d="M161.765 70.6692L161.829 70.6058C163.477 69.0844 164.872 67.6898 166.013 66.4219C165.822 66.2951 165.696 66.2317 165.506 66.1049C164.364 67.3094 163.033 68.6407 161.512 70.0987C160.18 70.1621 158.469 69.9085 156.694 69.4648C156.63 69.6549 156.567 69.7817 156.504 69.9719C158.405 70.4157 160.244 70.7326 161.639 70.6058L161.765 70.6692Z" fill="#C0D254"/>
<path d="M172.479 107.311C172.479 107.311 168.675 95.6461 166.9 89.6872C165.125 83.6648 160.18 65.5977 160.18 65.5977C160.18 65.5977 166.71 87.2148 167.407 89.7506C168.105 92.2863 172.923 105.599 173.303 106.994C173.493 107.437 172.796 107.881 172.479 107.311Z" fill="#C0D254"/>
<path d="M72.7612 154.792C72.571 155.616 74.7264 158.786 74.663 162.589C74.5362 166.393 73.8389 172.352 69.1478 177.043C64.4567 181.734 59.3852 183.256 53.553 184.27C47.7209 185.284 45.8191 185.411 44.5512 186.362C45.1217 184.524 44.5512 180.023 44.7414 176.473C44.8682 172.923 46.3262 166.013 52.3486 159.99C58.3709 153.905 66.8022 153.461 68.9576 153.968C71.113 154.539 71.8103 154.348 72.3175 154.222C72.8246 154.158 72.7612 154.792 72.7612 154.792Z" fill="#5E8845"/>
<path d="M69.7818 158.406C71.8104 160.751 73.0148 166.14 73.5854 169.499C73.7122 169.056 73.8389 168.675 73.9023 168.295C73.7756 167.598 73.6488 166.964 73.5854 166.52C72.9514 163.667 71.8738 159.864 70.1621 157.962L70.0987 157.898H70.0354C65.9782 156.187 62.6817 155.363 60.2094 155.046C59.829 155.172 59.4487 155.299 59.1317 155.489C61.604 155.743 65.2175 156.504 69.7818 158.406Z" fill="#4C6E37"/>
<path d="M64.7737 163.921C66.8657 166.964 68.4505 174.317 68.9577 177.17C69.021 177.107 69.0844 177.107 69.0844 177.043C69.2112 176.916 69.2746 176.79 69.4014 176.726C68.7675 173.62 67.246 166.583 65.0907 163.54L65.0273 163.477H64.9005C61.2871 162.463 58.3076 161.892 55.962 161.512C53.8701 161.195 52.2852 161.131 51.1441 161.068C50.954 161.258 50.8272 161.448 50.637 161.639C52.9826 161.639 57.6103 161.956 64.7737 163.921Z" fill="#4C6E37"/>
<path d="M59.7022 169.69C61.4138 172.225 62.8085 177.804 63.5692 181.164C63.7594 181.1 63.8862 180.974 64.0764 180.91C63.3156 177.424 61.921 171.908 60.0826 169.309L60.0192 169.246H59.8924C56.279 168.232 53.2995 167.661 50.954 167.281C49.4959 167.09 48.228 166.964 47.2771 166.9C47.2138 167.09 47.087 167.281 47.0236 167.471C49.5593 167.471 53.7433 167.978 59.7022 169.69Z" fill="#4C6E37"/>
<path d="M55.3281 174.317H55.2013C51.5879 173.303 48.6084 172.732 46.2629 172.352C45.9459 172.289 45.629 172.289 45.312 172.225C45.2486 172.416 45.2486 172.606 45.1852 172.796C47.6575 173.113 50.8906 173.683 54.9478 174.824C56.2156 176.726 57.2933 180.213 58.1174 183.256C58.3076 183.192 58.4978 183.129 58.6246 183.129C57.8005 179.959 56.7228 176.346 55.3281 174.444V174.317Z" fill="#4C6E37"/>
<path d="M50.5102 179.579H50.3834C48.2281 179.008 46.3263 178.501 44.6146 178.184C44.6146 178.374 44.6146 178.565 44.6146 178.755C46.2629 179.072 48.0379 179.516 50.1299 180.086C50.8906 181.164 51.5245 182.749 52.095 184.524C52.2852 184.524 52.4754 184.46 52.6656 184.397C52.0317 182.558 51.3343 180.847 50.5102 179.642V179.579Z" fill="#4C6E37"/>
<path d="M76.0577 151.242C76.0577 151.242 68.1335 160.624 63.9496 165.252C59.7656 169.88 46.9602 183.573 46.9602 183.573C46.9602 183.573 61.921 166.71 63.696 164.745C65.471 162.843 74.2827 151.749 75.2336 150.672C75.6139 150.291 76.3747 150.672 76.0577 151.242Z" fill="#4C6E37"/>
<path d="M190.102 83.1577C190.102 83.1577 84.9327 112.762 70.1621 119.292C63.2522 122.335 62.8085 126.075 62.8718 130.703L67.1826 247.853C67.3094 252.481 69.9085 259.201 77.1353 258.187L193.589 219.643C197.519 218.502 200.562 213.811 200.435 209.184L200.182 86.7077C200.055 82.08 194.033 82.0166 190.102 83.1577Z" fill="#743B27"/>
<path d="M194.35 83.1577L70.0987 119.292C66.1683 120.433 63.1254 125.124 63.2522 129.752L66.2951 249.438C66.4219 254.066 69.6549 256.919 73.5853 255.778L197.836 219.643C201.767 218.502 204.809 213.811 204.683 209.183L201.64 89.497C201.576 84.8693 198.28 82.0166 194.35 83.1577Z" fill="#5A2D1A"/>
<path d="M189.278 92.73L75.6773 125.758C72.1273 126.772 69.2746 130.956 69.4013 135.077L72.0639 240.69C72.1906 244.811 75.1701 247.283 78.7201 246.205L192.321 213.177C195.871 212.163 198.724 207.979 198.597 203.858L195.934 98.3087C195.808 94.1881 192.828 91.7157 189.278 92.73Z" stroke="#F8B450" stroke-width="0.9277" stroke-miterlimit="10" stroke-dasharray="7.59 7.59"/>
<path opacity="0.43" d="M169.816 143.064C167.217 143.825 165.189 146.931 165.252 150.038L165.823 173.556C165.886 176.663 168.105 178.565 170.704 177.804L203.668 168.231L202.781 133.492L169.816 143.064Z" fill="#985C3A"/>
<path d="M208.486 130.322L171.908 140.972C169.309 141.733 167.281 144.839 167.344 147.946L167.914 171.464C167.978 174.571 170.197 176.473 172.796 175.712L209.374 165.062C211.973 164.301 214.001 161.195 213.938 158.089L213.367 134.57C213.304 131.463 211.085 129.562 208.486 130.322Z" fill="#A87442"/>
<path d="M206.458 134.379L174.19 143.762C171.908 144.459 170.07 146.995 170.133 149.467L170.64 168.358C170.704 170.831 172.606 172.289 174.888 171.655L207.155 162.273C209.437 161.575 211.276 159.039 211.212 156.567L210.705 137.676C210.642 135.14 208.74 133.682 206.458 134.379Z" stroke="#F8B450" stroke-width="0.9277" stroke-miterlimit="10" stroke-dasharray="7.59 7.59"/>
<path d="M184.967 154.665C185.031 158.152 182.749 161.702 179.769 162.589C176.79 163.477 174.381 161.322 174.254 157.772C174.19 154.285 176.473 150.735 179.452 149.847C182.432 149.023 184.904 151.179 184.967 154.665Z" fill="#FDCC53"/>
<path opacity="0.24" d="M66.6121 121.511C64.5201 123.603 63.1888 126.709 63.2522 129.815L66.2951 249.502C66.4219 254.129 69.6549 256.982 73.5853 255.841L197.836 219.707C201.767 218.566 204.809 213.875 204.683 209.247L203.985 181.798C125.821 248.931 69.9085 202.337 66.6121 121.511Z" fill="#985C3A"/>
<path d="M127.279 83.9818C133.302 96.1533 129.308 113.65 118.468 123.032C114.411 126.519 113.46 128.42 109.149 128.737C108.452 128.801 104.268 128.801 103.57 128.801C97.1676 128.547 91.3354 124.87 87.9122 117.961C81.8898 105.789 85.8836 88.2925 96.7239 78.9103C100.781 75.4237 105.282 73.5219 109.593 73.2049C110.48 73.1415 114.918 73.2049 114.918 73.2049C114.918 73.2049 123.983 77.3255 127.279 83.9818Z" fill="#CA6B0A"/>
<path d="M131.59 83.9818C137.613 96.1533 133.619 113.65 122.778 123.032C111.938 132.414 98.2453 130.132 92.2229 117.961C86.2006 105.789 90.1944 88.2925 101.035 78.9103C111.938 69.5281 125.631 71.8103 131.59 83.9818Z" fill="url(#paint0_linear_95_8592)"/>
<path d="M127.66 87.405C132.414 97.1042 129.308 111.051 120.623 118.531C111.938 126.012 101.035 124.173 96.2801 114.474C91.5256 104.775 94.6319 90.8282 103.317 83.3478C111.938 75.8674 122.842 77.7058 127.66 87.405Z" fill="url(#paint1_linear_95_8592)"/>
<path d="M126.455 88.2925C130.893 97.2944 127.977 110.227 119.926 117.136C111.875 124.046 101.795 122.398 97.3578 113.396C92.9203 104.394 95.8364 91.4622 103.887 84.5523C111.938 77.5791 122.081 79.2907 126.455 88.2925Z" fill="url(#paint2_linear_95_8592)"/>
<path d="M116.186 111.494C112.255 114.347 108.452 114.601 106.233 110.734L112.192 105.599C112.636 106.423 113.206 106.613 113.777 106.486L112.445 103.697C109.276 105.219 104.775 107.754 102.429 102.936C100.527 99.1328 102.619 94.3783 106.233 91.0184L105.092 88.7363L106.677 87.405L107.818 89.6872C111.938 86.5809 115.488 86.6443 117.644 90.3845L111.621 95.5827C111.178 94.8854 110.734 94.6318 110.29 94.6952L111.621 97.4212C114.854 96.0265 119.545 93.364 121.828 98.0551C123.476 101.415 122.335 106.169 117.897 110.163L119.038 112.445L117.453 113.777L116.186 111.494ZM109.593 98.0551L108.452 95.7729C108.008 96.3435 107.881 96.914 108.198 97.4845C108.452 97.9917 108.959 98.1819 109.593 98.0551ZM114.22 103L115.425 105.409C115.932 104.775 116.186 104.077 115.805 103.38C115.552 102.81 114.981 102.746 114.22 103Z" fill="url(#paint3_linear_95_8592)"/>
<path d="M170.894 83.7916C175.585 93.364 172.479 107.057 163.984 114.411C160.814 117.136 160.054 118.595 156.694 118.911C156.123 118.975 152.89 118.975 152.32 118.975C147.312 118.785 142.747 115.869 140.085 110.48C135.394 100.908 138.5 87.2148 146.995 79.8612C150.164 77.1353 153.714 75.6139 157.074 75.3603C157.772 75.2969 161.258 75.3603 161.258 75.3603C161.258 75.3603 168.295 78.5934 170.894 83.7916Z" fill="#CA6B0A"/>
<path d="M174.254 83.7916C178.945 93.364 175.839 107.057 167.344 114.411C158.849 121.764 148.136 119.989 143.445 110.417C138.754 100.844 141.86 87.1515 150.355 79.7979C158.849 72.5076 169.563 74.2826 174.254 83.7916Z" fill="url(#paint4_linear_95_8592)"/>
<path d="M171.148 86.5175C174.888 94.1247 172.415 105.092 165.632 110.924C158.849 116.756 150.291 115.361 146.551 107.754C142.811 100.147 145.283 89.18 152.066 83.3479C158.849 77.4523 167.407 78.9103 171.148 86.5175Z" fill="url(#paint5_linear_95_8592)"/>
<path d="M170.26 87.2148C173.747 94.2515 171.465 104.394 165.189 109.846C158.913 115.298 150.989 113.967 147.502 106.93C144.015 99.8935 146.297 89.7506 152.573 84.2987C158.849 78.8469 166.773 80.1148 170.26 87.2148Z" fill="url(#paint6_linear_95_8592)"/>
<path d="M162.209 105.345C159.166 107.564 156.123 107.754 154.412 104.775L159.039 100.781C159.42 101.415 159.8 101.605 160.244 101.478L159.166 99.323C156.694 100.527 153.144 102.493 151.305 98.689C149.847 95.7095 151.432 91.9693 154.285 89.3702L153.397 87.5952L154.602 86.5175L155.489 88.2925C158.722 85.8836 161.512 85.947 163.16 88.8631L158.469 92.9202C158.089 92.3497 157.772 92.1595 157.391 92.2229L158.469 94.3783C161.005 93.3006 164.681 91.2086 166.52 94.8854C167.788 97.4845 166.9 101.225 163.414 104.394L164.301 106.169L163.097 107.247L162.209 105.345ZM157.011 94.8854L156.123 93.1104C155.743 93.5542 155.68 93.9979 155.933 94.4417C156.123 94.822 156.504 94.9488 157.011 94.8854ZM160.688 98.689L161.639 100.591C162.019 100.084 162.209 99.5131 161.956 99.006C161.702 98.5622 161.258 98.5622 160.688 98.689Z" fill="url(#paint7_linear_95_8592)"/>
<path d="M155.743 33.1404C159.8 41.3815 157.138 53.1727 149.784 59.512C147.058 61.8576 146.361 63.1254 143.508 63.379C143.064 63.4424 140.212 63.4424 139.768 63.379C135.457 63.1888 131.527 60.7165 129.181 56.0254C125.124 47.7842 127.787 35.9931 135.14 29.6538C137.866 27.3082 140.909 26.0404 143.825 25.7868C144.459 25.7234 147.438 25.7868 147.438 25.7868C147.438 25.7868 153.524 28.6395 155.743 33.1404Z" fill="#CA6B0A"/>
<path d="M158.659 33.1404C162.716 41.3815 160.054 53.1727 152.7 59.512C145.347 65.8513 136.154 64.3299 132.097 56.0888C128.04 47.8476 130.703 36.0565 138.056 29.7172C145.347 23.3778 154.602 24.8993 158.659 33.1404Z" fill="url(#paint8_linear_95_8592)"/>
<path d="M155.997 35.4226C159.23 42.0155 157.074 51.3977 151.242 56.4691C145.41 61.5406 138.056 60.2727 134.823 53.7432C131.59 47.2137 133.746 37.7681 139.578 32.6967C145.346 27.6886 152.763 28.8931 155.997 35.4226Z" fill="url(#paint9_linear_95_8592)"/>
<path d="M155.172 36.0565C158.152 42.1423 156.187 50.8272 150.798 55.5183C145.41 60.2094 138.563 59.0683 135.584 52.9825C132.604 46.8968 134.57 38.2119 139.958 33.5208C145.346 28.8297 152.193 29.9708 155.172 36.0565Z" fill="url(#paint10_linear_95_8592)"/>
<path d="M148.263 51.7147C145.6 53.6165 143.064 53.8066 141.543 51.2075L145.537 47.7209C145.854 48.2914 146.234 48.4182 146.614 48.3548L145.663 46.5164C143.508 47.5307 140.465 49.2423 138.88 46.0093C137.613 43.4101 139.007 40.2405 141.416 37.9583L140.655 36.4369L141.733 35.5494L142.494 37.0708C145.283 34.9788 147.692 35.0422 149.15 37.5146L145.093 41.0012C144.776 40.5574 144.459 40.3673 144.205 40.3673L145.093 42.2057C147.248 41.2548 150.418 39.4798 152.003 42.6494C153.08 44.8682 152.32 48.1012 149.34 50.8272L150.101 52.3486L149.023 53.2361L148.263 51.7147ZM143.762 42.6494L143.001 41.128C142.684 41.5083 142.621 41.8887 142.811 42.2691C143.001 42.6494 143.381 42.7128 143.762 42.6494ZM146.931 45.9459L147.755 47.5941C148.072 47.1503 148.263 46.7066 148.009 46.1994C147.819 45.8825 147.438 45.8191 146.931 45.9459Z" fill="url(#paint11_linear_95_8592)"/>
<path d="M200.752 85.7568L76.5014 121.891C72.571 123.032 69.5281 127.723 69.6549 132.351L72.6978 252.037C72.8246 256.665 75.9309 259.454 83.1577 258.44L204.239 222.243C208.169 221.101 211.212 216.41 211.085 211.783L210.832 89.3068C210.705 84.6157 204.619 84.6157 200.752 85.7568Z" fill="#743B27"/>
<path d="M205 85.7568L80.7488 121.891C76.8184 123.032 73.7755 127.723 73.9023 132.351L76.9452 252.037C77.072 256.665 80.305 259.518 84.2354 258.377L208.486 222.243C212.417 221.101 215.459 216.41 215.333 211.783L212.29 92.0961C212.163 87.4684 208.93 84.6157 205 85.7568Z" fill="#A87442"/>
<path d="M213.114 124.934L212.29 92.0961C212.163 87.4684 208.93 84.6157 205 85.7568L109.846 113.46C125.124 141.86 160.751 144.713 213.114 124.934Z" fill="#B67C48"/>
<path d="M199.865 95.3292L93.8078 126.329C90.2577 127.343 87.405 131.527 87.5318 135.647L90.1943 241.261C90.3211 245.381 93.3006 247.853 96.8506 246.776L202.908 215.776C206.458 214.762 209.31 210.578 209.184 206.458L206.584 100.844C206.458 96.7239 203.478 94.2516 199.865 95.3292Z" stroke="#F8B450" stroke-width="0.9277" stroke-miterlimit="10" stroke-dasharray="7.59 7.59"/>
<path opacity="0.43" d="M180.466 142.811C177.867 143.571 175.839 146.678 175.902 149.784L176.473 176.156C176.536 179.262 178.755 181.164 181.354 180.403L214.318 170.831L213.431 133.302L180.466 142.811Z" fill="#985C3A"/>
<path d="M219.136 132.921L182.558 143.572C179.959 144.332 177.931 147.439 177.994 150.545L178.565 174.064C178.628 177.17 180.847 179.072 183.446 178.311L220.024 167.661C222.623 166.9 224.651 163.794 224.588 160.688L224.018 137.169C223.891 134.063 221.735 132.161 219.136 132.921Z" fill="#A87442"/>
<path d="M217.108 136.915L184.841 146.297C182.558 146.995 180.72 149.53 180.783 152.003L181.29 170.894C181.354 173.366 183.256 174.824 185.538 174.19L217.805 164.808C220.087 164.111 221.926 161.575 221.862 159.103L221.355 140.212C221.292 137.739 219.39 136.281 217.108 136.915Z" stroke="#F8B450" stroke-width="0.9277" stroke-miterlimit="10" stroke-dasharray="7.59 7.59"/>
<path d="M195.617 157.201C195.681 160.688 193.399 164.238 190.419 165.125C187.44 166.013 185.031 163.857 184.904 160.307C184.84 156.821 187.123 153.271 190.102 152.383C193.082 151.559 195.554 153.714 195.617 157.201Z" fill="#C6A188"/>
<path opacity="0.24" d="M77.2622 124.046C75.1702 126.138 73.8389 129.245 73.9023 132.351L76.9452 252.037C77.072 256.665 80.305 259.518 84.2354 258.377L208.486 222.243C212.417 221.101 215.459 216.41 215.333 211.783L214.635 184.333C136.471 251.53 80.5586 204.873 77.2622 124.046Z" fill="#985C3A"/>
<path d="M151.825 164.902C152.796 160.026 150.8 155.519 147.366 154.836C143.933 154.152 140.362 157.55 139.391 162.426C138.42 167.301 140.416 171.808 143.85 172.492C147.284 173.176 150.854 169.777 151.825 164.902Z" fill="#633220"/>
<path d="M145.663 162.019L140.021 193.842L156.25 188.391L145.663 162.019Z" fill="#633220"/>
<path d="M69.4014 119.609C62.9986 122.842 71.43 124.617 80.1148 122.145C80.1148 134.379 83.6648 254.7 83.6648 258.44C76.2478 260.152 66.2317 261.673 66.2317 250.262C66.2317 231.054 62.9986 139.704 62.8085 131.527C62.5549 123.222 64.9638 121.384 69.4014 119.609Z" fill="#A87442"/>
<path opacity="0.47" d="M69.4014 119.609C62.9986 122.842 71.43 124.617 80.1148 122.145C80.1148 134.379 83.6648 254.7 83.6648 258.44C76.2478 260.152 66.2317 261.673 66.2317 250.262C66.2317 231.054 62.9986 139.704 62.8085 131.527C62.5549 123.222 64.9638 121.384 69.4014 119.609Z" fill="#723B27"/>
<path d="M175.458 170.007L139.197 166.076C138.944 163.984 139.388 161.448 140.085 159.99L176.156 163.921L175.458 170.007Z" fill="#FFCD00"/>
<path d="M154.919 165.886C147.819 165.125 143.381 163.287 142.494 160.307L140.085 160.054C139.388 161.512 138.944 164.048 139.197 166.14L175.458 170.07L175.712 167.978C169.88 167.344 160.561 166.52 154.919 165.886Z" fill="#FABC00"/>
<path d="M178.121 167.534C177.804 170.767 175.649 173.113 173.43 172.923C171.211 172.669 169.69 169.88 170.007 166.71C170.323 163.477 172.479 161.131 174.698 161.322C176.916 161.512 178.438 164.301 178.121 167.534Z" fill="#F59F00"/>
<path d="M192.131 183.509C191.56 183.509 190.99 183.509 190.419 183.446C180.34 182.685 172.606 175.585 173.176 167.598C173.747 159.61 182.432 153.714 192.511 154.412C202.591 155.172 210.325 162.272 209.754 170.26C209.247 177.804 201.45 183.509 192.131 183.509ZM190.863 160.497C184.777 160.497 179.642 163.794 179.325 168.041C179.008 172.606 184.27 176.853 190.863 177.297C197.456 177.804 203.288 174.317 203.605 169.816C203.922 165.252 198.66 161.005 192.067 160.561C191.687 160.561 191.307 160.497 190.863 160.497Z" fill="#FFCD00"/>
<path d="M190.926 177.297C184.333 176.79 179.072 172.606 179.389 168.041C179.452 167.217 179.706 166.393 180.086 165.696C178.565 163.984 177.487 161.892 177.043 159.673C174.888 161.829 173.493 164.555 173.24 167.598C172.669 175.585 180.403 182.685 190.483 183.446C191.053 183.509 191.624 183.509 192.194 183.509C201.513 183.509 209.31 177.804 209.817 170.26C209.817 169.816 209.881 169.436 209.817 168.992C208.106 170.007 205.824 170.831 203.351 171.274C202.02 175.078 196.758 177.74 190.926 177.297Z" fill="#FABC00"/>
<path d="M192.004 155.68C193.842 155.489 195.744 155.743 197.519 156.25C199.358 156.757 201.069 157.518 202.654 158.596C204.239 159.673 205.634 161.005 206.648 162.589C207.662 164.174 208.296 166.013 208.423 167.915C207.789 166.203 206.901 164.618 205.824 163.223C204.683 161.892 203.351 160.688 201.893 159.737C200.435 158.722 198.85 157.962 197.139 157.264C195.491 156.631 193.779 156.06 192.004 155.68Z" fill="#FFFDF4"/>
<path d="M238.154 70.8594C239.205 70.8594 240.056 70.0079 240.056 68.9576C240.056 67.9072 239.205 67.0558 238.154 67.0558C237.104 67.0558 236.252 67.9072 236.252 68.9576C236.252 70.0079 237.104 70.8594 238.154 70.8594Z" stroke="#92A44B" stroke-width="1.0341" stroke-miterlimit="10"/>
<path d="M231.308 49.3691C231.308 49.6226 231.118 49.8128 230.864 49.8128C230.61 49.8128 230.42 49.6226 230.42 49.3691C230.42 49.1155 230.61 48.9253 230.864 48.9253C231.118 48.9253 231.308 49.1155 231.308 49.3691Z" stroke="#92A44B" stroke-width="1.0341" stroke-miterlimit="10"/>
<path d="M245.635 106.233C246.475 106.233 247.156 105.552 247.156 104.711C247.156 103.871 246.475 103.19 245.635 103.19C244.794 103.19 244.113 103.871 244.113 104.711C244.113 105.552 244.794 106.233 245.635 106.233Z" stroke="#92A44B" stroke-width="1.0341" stroke-miterlimit="10"/>
<path d="M115.678 62.6182C116.729 62.6182 117.58 61.7668 117.58 60.7164C117.58 59.6661 116.729 58.8146 115.678 58.8146C114.628 58.8146 113.777 59.6661 113.777 60.7164C113.777 61.7668 114.628 62.6182 115.678 62.6182Z" stroke="#92A44B" stroke-width="1.0341" stroke-miterlimit="10"/>
<path d="M94.6952 59.7656C95.4655 59.7656 96.0899 59.1412 96.0899 58.3709C96.0899 57.6007 95.4655 56.9763 94.6952 56.9763C93.925 56.9763 93.3006 57.6007 93.3006 58.3709C93.3006 59.1412 93.925 59.7656 94.6952 59.7656Z" stroke="#92A44B" stroke-width="1.0341" stroke-miterlimit="10"/>
<path d="M107.691 42.586C108.741 42.586 109.593 41.7345 109.593 40.6842C109.593 39.6338 108.741 38.7824 107.691 38.7824C106.641 38.7824 105.789 39.6338 105.789 40.6842C105.789 41.7345 106.641 42.586 107.691 42.586Z" stroke="#92A44B" stroke-width="1.0341" stroke-miterlimit="10"/>
<path d="M71.8103 78.6568C71.8103 79.1639 71.3665 79.6077 70.8594 79.6077C70.3522 79.6077 69.9085 79.1639 69.9085 78.6568C69.9085 78.1496 70.3522 77.7059 70.8594 77.7059C71.3665 77.7059 71.8103 78.1496 71.8103 78.6568Z" stroke="#92A44B" stroke-width="1.0341" stroke-miterlimit="10"/>
<path d="M11.7768 116.693C12.372 116.693 12.8545 116.21 12.8545 115.615C12.8545 115.02 12.372 114.537 11.7768 114.537C11.1817 114.537 10.6992 115.02 10.6992 115.615C10.6992 116.21 11.1817 116.693 11.7768 116.693Z" stroke="#92A44B" stroke-width="1.0341" stroke-miterlimit="10"/>
<path d="M19.4474 86.7711C19.4474 88.5461 17.9894 89.9408 16.2778 89.9408C14.5028 89.9408 13.1081 88.4828 13.1081 86.7711C13.1081 84.9961 14.5662 83.6015 16.2778 83.6015C17.9894 83.6015 19.4474 85.0595 19.4474 86.7711Z" stroke="#92A44B" stroke-width="1.0341" stroke-miterlimit="10"/>
<path d="M4.55002 136.345C4.55002 137.295 3.72591 138.12 2.77501 138.12C1.82411 138.12 1 137.295 1 136.345C1 135.394 1.82411 134.57 2.77501 134.57C3.72591 134.57 4.55002 135.394 4.55002 136.345Z" stroke="#92A44B" stroke-width="1.0341" stroke-miterlimit="10"/>
<path d="M19.5108 159.166C19.7209 159.166 19.8912 158.996 19.8912 158.786C19.8912 158.576 19.7209 158.406 19.5108 158.406C19.3008 158.406 19.1305 158.576 19.1305 158.786C19.1305 158.996 19.3008 159.166 19.5108 159.166Z" stroke="#92A44B" stroke-width="1.0341" stroke-miterlimit="10"/>
<path d="M12.7911 200.879C14.2266 200.879 15.3903 199.715 15.3903 198.28C15.3903 196.844 14.2266 195.681 12.7911 195.681C11.3557 195.681 10.192 196.844 10.192 198.28C10.192 199.715 11.3557 200.879 12.7911 200.879Z" stroke="#92A44B" stroke-width="1.0341" stroke-miterlimit="10"/>
<path d="M47.0235 223.447C47.0235 224.398 46.1994 225.222 45.2485 225.222C44.2976 225.222 43.4735 224.398 43.4735 223.447C43.4735 222.496 44.2976 221.672 45.2485 221.672C46.1994 221.672 47.0235 222.433 47.0235 223.447Z" stroke="#92A44B" stroke-width="1.0341" stroke-miterlimit="10"/>
<path d="M47.0235 27.118C47.0235 28.0689 46.1994 28.8931 45.2485 28.8931C44.2976 28.8931 43.4735 28.0689 43.4735 27.118C43.4735 26.1671 44.2976 25.343 45.2485 25.343C46.1994 25.343 47.0235 26.1038 47.0235 27.118Z" stroke="#92A44B" stroke-width="1.0341" stroke-miterlimit="10"/>
<path d="M199.801 3.15537C200.397 3.15537 200.879 2.67288 200.879 2.07769C200.879 1.4825 200.397 1 199.801 1C199.206 1 198.724 1.4825 198.724 2.07769C198.724 2.67288 199.206 3.15537 199.801 3.15537Z" stroke="#92A44B" stroke-width="1.0341" stroke-miterlimit="10"/>
<path d="M265.096 46.3262C266.602 46.3262 267.822 45.1058 267.822 43.6003C267.822 42.0948 266.602 40.8744 265.096 40.8744C263.591 40.8744 262.37 42.0948 262.37 43.6003C262.37 45.1058 263.591 46.3262 265.096 46.3262Z" stroke="#92A44B" stroke-width="1.0341" stroke-miterlimit="10"/>
<path d="M276 137.993C276 138.373 275.683 138.69 275.303 138.69C274.922 138.69 274.605 138.373 274.605 137.993C274.605 137.613 274.922 137.296 275.303 137.296C275.746 137.296 276 137.613 276 137.993Z" stroke="#92A44B" stroke-width="1.0341" stroke-miterlimit="10"/>
<path d="M243.669 181.1C243.669 182.305 242.655 183.319 241.451 183.319C240.246 183.319 239.232 182.305 239.232 181.1C239.232 179.896 240.246 178.882 241.451 178.882C242.655 178.882 243.669 179.832 243.669 181.1Z" stroke="#92A44B" stroke-width="1.0341" stroke-miterlimit="10"/>
<defs>
<linearGradient id="paint0_linear_95_8592" x1="108.283" y1="128.904" x2="108.156" y2="76.3693" gradientUnits="userSpaceOnUse">
<stop stop-color="#FFA300"/>
<stop offset="1" stop-color="#FFCD00"/>
</linearGradient>
<linearGradient id="paint1_linear_95_8592" x1="130.353" y1="74.6969" x2="93.0291" y2="111.874" gradientUnits="userSpaceOnUse">
<stop stop-color="#E27212"/>
<stop offset="1" stop-color="#FFCD00"/>
</linearGradient>
<linearGradient id="paint2_linear_95_8592" x1="109.057" y1="122.397" x2="109.171" y2="73.7022" gradientUnits="userSpaceOnUse">
<stop stop-color="#E27212"/>
<stop offset="1" stop-color="#FFCD00"/>
</linearGradient>
<linearGradient id="paint3_linear_95_8592" x1="111.847" y1="111.683" x2="107.474" y2="86.7177" gradientUnits="userSpaceOnUse">
<stop stop-color="#FFC300"/>
<stop offset="1" stop-color="#FFE800"/>
</linearGradient>
<linearGradient id="paint4_linear_95_8592" x1="155.987" y1="119.041" x2="155.887" y2="77.8603" gradientUnits="userSpaceOnUse">
<stop stop-color="#FFA300"/>
<stop offset="1" stop-color="#FFCD00"/>
</linearGradient>
<linearGradient id="paint5_linear_95_8592" x1="173.287" y1="76.5494" x2="144.03" y2="105.692" gradientUnits="userSpaceOnUse">
<stop stop-color="#E27212"/>
<stop offset="1" stop-color="#FFCD00"/>
</linearGradient>
<linearGradient id="paint6_linear_95_8592" x1="156.594" y1="113.941" x2="156.683" y2="75.7697" gradientUnits="userSpaceOnUse">
<stop stop-color="#E27212"/>
<stop offset="1" stop-color="#FFCD00"/>
</linearGradient>
<linearGradient id="paint7_linear_95_8592" x1="158.781" y1="105.542" x2="155.353" y2="85.9721" gradientUnits="userSpaceOnUse">
<stop stop-color="#FFC300"/>
<stop offset="1" stop-color="#FFE800"/>
</linearGradient>
<linearGradient id="paint8_linear_95_8592" x1="142.897" y1="63.4793" x2="142.812" y2="28.0012" gradientUnits="userSpaceOnUse">
<stop stop-color="#FFA300"/>
<stop offset="1" stop-color="#FFCD00"/>
</linearGradient>
<linearGradient id="paint9_linear_95_8592" x1="157.802" y1="26.8718" x2="132.596" y2="51.9783" gradientUnits="userSpaceOnUse">
<stop stop-color="#E27212"/>
<stop offset="1" stop-color="#FFCD00"/>
</linearGradient>
<linearGradient id="paint10_linear_95_8592" x1="143.42" y1="59.0849" x2="143.497" y2="26.2001" gradientUnits="userSpaceOnUse">
<stop stop-color="#E27212"/>
<stop offset="1" stop-color="#FFCD00"/>
</linearGradient>
<linearGradient id="paint11_linear_95_8592" x1="145.304" y1="51.8494" x2="142.351" y2="34.9898" gradientUnits="userSpaceOnUse">
<stop stop-color="#FFC300"/>
<stop offset="1" stop-color="#FFE800"/>
</linearGradient>
</defs>
</svg>
