<svg width="428" height="926" viewBox="0 0 428 926" fill="none" xmlns="http://www.w3.org/2000/svg">
<path opacity="0.1" d="M-104.5 853.5C-122.333 780.333 -155.3 513.5 35.5 461.5C274 396.5 199 170 96 133.5C18.1255 105.904 -143.08 112.71 -179.5 94.5C-302.5 33 -193 -61.5 -193 -121.5M564 405C499.791 388.856 365 516.5 317 681C269 845.5 120 720 212 1027M55 1009.5C151.5 1069 -65.077 717.74 156.5 619.5C313 550.113 313.5 287.5 513 287.5M245.5 -150.5C188.5 -51 174.5 14.5 262.5 117C350.5 219.5 621 188.5 646.5 94.5C666.9 19.3 600 -124.833 564 -187.5" stroke="#FFD60A"/>
</svg>
